<svg width="1440" height="213" viewBox="0 0 1440 213" fill="none" xmlns="http://www.w3.org/2000/svg">
<path fill-rule="evenodd" clip-rule="evenodd" d="M416.635 -24.3407C415.803 -25.8255 414.214 -26.8299 412.392 -26.8299C409.715 -26.8299 407.537 -24.6522 407.537 -21.9698C407.537 -21.3444 407.658 -20.741 407.872 -20.1925L373.033 -0.0770054V0.416986L360.058 7.90797C359.471 7.24422 358.648 6.7999 357.716 6.70664V-25.6909H356.997V6.70664C356.07 6.7999 355.242 7.24422 354.655 7.90797L306.733 -19.7556C306.953 -20.3096 307.073 -20.9075 307.073 -21.5384C307.073 -24.2208 304.896 -26.3986 302.213 -26.3986C299.531 -26.3986 297.358 -24.2208 297.358 -21.5384C297.358 -20.9075 297.474 -20.3096 297.693 -19.7556L249.239 8.21516C248.773 7.72695 248.137 7.39782 247.429 7.31005V-25.6909H246.711V7.31005C246.003 7.39782 245.372 7.72695 244.906 8.21516L196.995 -19.4429C197.187 -19.9969 197.291 -20.5894 197.291 -21.2038C197.291 -24.1659 194.889 -26.5686 191.926 -26.5686C188.97 -26.5686 186.567 -24.1659 186.567 -21.2038C186.567 -20.5894 186.671 -19.9969 186.863 -19.4429L139.397 7.95734C138.755 7.24422 137.823 6.78893 136.786 6.78893C135.749 6.78893 134.817 7.24422 134.175 7.95734L84.8544 -20.5181C84.8983 -20.7375 84.9257 -20.9679 84.9257 -21.2038C84.9257 -22.7671 83.8286 -24.0782 82.3639 -24.4073V-25.6909H80.9267V-24.4073C79.4566 -24.0782 78.3595 -22.7671 78.3595 -21.2038C78.3595 -20.9679 78.3869 -20.7375 78.4363 -20.5181L28.6715 8.21516C28.1998 7.72695 27.569 7.39782 26.8613 7.31005V-25.6909H26.1427V7.31005C25.4351 7.39782 24.7988 7.72695 24.3325 8.21516L-24.1212 -19.7556C-23.9018 -20.3096 -23.7811 -20.9075 -23.7811 -21.5384C-23.7811 -24.2208 -25.9589 -26.3986 -28.6413 -26.3986C-31.3237 -26.3986 -33.5015 -24.2208 -33.5015 -21.5384C-33.5015 -20.9075 -33.3808 -20.3096 -33.1614 -19.7556L-68 0.354393V2.01651L-32.4428 -18.5158C-31.5541 -17.3968 -30.1827 -16.6782 -28.6413 -16.6782C-27.1054 -16.6782 -25.734 -17.3968 -24.8398 -18.5158L23.6139 9.46038C23.5371 9.72917 23.4932 10.0089 23.4932 10.2997C23.4932 10.7166 23.581 11.117 23.7346 11.4791L-27.2206 40.898C-27.5661 40.503 -28.0763 40.2507 -28.6413 40.2507C-29.2118 40.2507 -29.7165 40.503 -30.0621 40.898L-68 18.9942V19.828L-30.4241 41.5233C-30.4899 41.7153 -30.5283 41.9183 -30.5283 42.1322C-30.5283 43.1745 -29.6836 44.0192 -28.6413 44.0192C-27.6045 44.0192 -26.7598 43.1745 -26.7598 42.1322C-26.7598 41.9183 -26.7927 41.7153 -26.8585 41.5233L24.0966 12.1044C24.508 12.6475 25.1005 13.0479 25.7807 13.218V68.9894C23.1586 69.3405 21.1399 71.5895 21.1399 74.3049C21.1399 74.9193 21.2441 75.5172 21.4361 76.0657L-26.0302 103.471C-26.672 102.753 -27.6045 102.303 -28.6413 102.303C-29.6781 102.303 -30.6106 102.753 -31.2579 103.471L-68 82.2534V83.9155L-31.9765 104.717C-32.0862 105.057 -32.152 105.424 -32.152 105.808C-32.152 107.745 -30.5777 109.314 -28.6413 109.314C-26.7049 109.314 -25.136 107.745 -25.136 105.808C-25.136 105.424 -25.1964 105.057 -25.3116 104.717L22.0889 77.3493C23.0544 78.7481 24.6726 79.6697 26.4993 79.6697C28.3314 79.6697 29.9442 78.7481 30.9151 77.3493L78.7545 104.969C78.376 106.269 78.919 107.706 80.1423 108.414C80.3891 108.557 80.6579 108.661 80.9267 108.727V163.631C79.1549 163.851 77.4983 164.871 76.5383 166.533C74.9146 169.353 75.88 172.957 78.6996 174.586C81.3052 176.089 84.5856 175.376 86.3519 173.028L131.361 199.018C130.214 201.717 131.235 204.915 133.84 206.424C136.654 208.048 140.264 207.082 141.887 204.263C142.847 202.601 142.908 200.659 142.211 199.018L189.76 171.563C189.952 171.766 190.171 171.942 190.423 172.085C191.861 172.913 193.704 172.425 194.532 170.987C195.36 169.55 194.872 167.707 193.435 166.879C193.183 166.731 192.914 166.626 192.645 166.561V108.573C193.364 108.386 194.005 107.926 194.406 107.24C194.801 106.549 194.883 105.759 194.686 105.046L242.657 77.3493C243.628 78.7481 245.24 79.6697 247.073 79.6697C248.899 79.6697 250.517 78.7481 251.488 77.3493L298.883 104.717C298.768 105.057 298.708 105.424 298.708 105.808C298.708 107.745 300.277 109.314 302.213 109.314C304.15 109.314 305.724 107.745 305.724 105.808C305.724 105.424 305.658 105.057 305.548 104.717L354.754 76.3016C355.357 77.0805 356.3 77.5852 357.359 77.5852C358.418 77.5852 359.356 77.0805 359.959 76.3016L408.972 104.602C408.916 104.851 408.887 105.11 408.887 105.377C408.887 105.565 408.901 105.749 408.93 105.929C408.921 106.501 409.062 107.082 409.368 107.613C410.278 109.182 412.286 109.719 413.855 108.814C414.315 108.548 414.687 108.186 414.959 107.767C415.544 107.141 415.903 106.301 415.903 105.377C415.903 105.148 415.881 104.925 415.839 104.709L463.382 77.2622C464.367 78.4651 465.861 79.2328 467.538 79.2328C469.248 79.2328 470.776 78.4298 471.76 77.1793L506.999 97.5251V97.151L519.793 104.538C519.415 105.838 519.952 107.275 521.175 107.982C521.428 108.125 521.691 108.229 521.96 108.295V163.2C520.188 163.419 518.537 164.44 517.577 166.102C515.953 168.921 516.919 172.525 519.733 174.154C522.338 175.658 525.624 174.944 527.385 172.597L572.399 198.582C571.247 201.286 572.273 204.484 574.879 205.987C577.693 207.616 581.302 206.651 582.926 203.831C583.886 202.169 583.941 200.227 583.244 198.587L630.798 171.132C630.99 171.329 631.21 171.51 631.462 171.653C632.899 172.481 634.742 171.988 635.571 170.55C636.399 169.113 635.905 167.276 634.468 166.447C634.216 166.299 633.953 166.195 633.684 166.129V108.142C634.402 107.955 635.044 107.494 635.445 106.803C635.84 106.117 635.916 105.328 635.719 104.614L683.695 76.9179C684.661 78.3167 686.279 79.2328 688.111 79.2328C689.938 79.2328 691.556 78.3167 692.522 76.9179L739.917 104.28C739.807 104.625 739.747 104.993 739.747 105.377C739.747 107.313 741.315 108.882 743.252 108.882C745.188 108.882 746.757 107.313 746.757 105.377C746.757 104.993 746.697 104.625 746.582 104.28L795.792 75.8702C796.396 76.6491 797.334 77.1538 798.392 77.1538C799.451 77.1538 800.395 76.6491 800.998 75.8702L850.214 104.291C849.841 105.196 849.88 106.266 850.406 107.182C851.311 108.75 853.319 109.288 854.888 108.383C856.243 107.604 856.83 105.997 856.38 104.565L905.98 75.9305C907.088 77.1867 908.97 77.5378 910.484 76.6656C910.829 76.4626 911.131 76.2158 911.383 75.9305L933.177 88.5134V88.9424L969.2 109.744C969.091 110.084 969.025 110.451 969.025 110.835C969.025 112.772 970.599 114.34 972.535 114.34C974.472 114.34 976.041 112.772 976.041 110.835C976.041 110.451 975.98 110.084 975.865 109.744L1023.27 82.3762C1024.23 83.775 1025.85 84.6966 1027.68 84.6966C1029.51 84.6966 1031.12 83.775 1032.09 82.3762L1079.93 109.996C1079.55 111.296 1080.1 112.733 1081.32 113.441C1081.57 113.583 1081.83 113.688 1082.1 113.753V168.658C1080.33 168.878 1078.68 169.898 1077.72 171.56C1076.09 174.38 1077.06 177.984 1079.88 179.613C1082.48 181.116 1085.76 180.403 1087.53 178.055L1132.54 204.045C1131.39 206.744 1132.41 209.942 1135.02 211.451C1137.83 213.075 1141.44 212.109 1143.06 209.289C1144.02 207.627 1144.08 205.686 1143.39 204.045L1190.94 176.59C1191.13 176.793 1191.35 176.969 1191.6 177.111C1193.04 177.94 1194.88 177.451 1195.71 176.014C1196.54 174.577 1196.05 172.734 1194.61 171.906C1194.36 171.757 1194.09 171.653 1193.82 171.587V113.6C1194.54 113.413 1195.18 112.953 1195.58 112.267C1195.98 111.576 1196.06 110.786 1195.86 110.073L1243.83 82.3762C1244.8 83.775 1246.42 84.6966 1248.25 84.6966C1250.08 84.6966 1251.69 83.775 1252.67 82.3762L1300.06 109.744C1299.94 110.084 1299.88 110.451 1299.88 110.835C1299.88 112.772 1301.45 114.34 1303.39 114.34C1305.33 114.34 1306.9 112.772 1306.9 110.835C1306.9 110.451 1306.83 110.084 1306.73 109.744L1355.93 81.3285C1356.53 82.1074 1357.48 82.6121 1358.54 82.6121C1359.59 82.6121 1360.53 82.1074 1361.14 81.3285L1410.36 109.749C1409.98 110.66 1410.02 111.724 1410.54 112.64C1411.45 114.209 1413.46 114.746 1415.03 113.841C1416.38 113.062 1416.97 111.455 1416.52 110.023L1466.12 81.3888C1467.23 82.6505 1469.11 82.9961 1470.62 82.1239C1470.97 81.9209 1471.27 81.674 1471.52 81.3888L1508.18 102.552V100.89L1472.24 80.1436C1472.52 79.3043 1472.49 78.3663 1472.11 77.516L1508.18 56.6874V55.8591L1471.75 76.8907C1471.2 76.1337 1470.4 75.64 1469.54 75.4644V20.1318C1470.12 20.0441 1470.7 19.8466 1471.25 19.5339C1473.36 18.3161 1474.21 15.7489 1473.34 13.5437L1508.18 -6.56624V-8.22836L1472.62 12.2985C1471.15 10.4444 1468.5 9.90133 1466.39 11.1191C1465.84 11.4318 1465.38 11.8377 1465.02 12.2985L1415.83 -16.1001C1415.85 -16.2318 1415.87 -16.3689 1415.87 -16.5115C1415.87 -16.7803 1415.82 -17.0436 1415.73 -17.2795L1421.59 -20.6641H1420.15L1415.37 -17.9048C1415.11 -18.212 1414.78 -18.4479 1414.4 -18.5796V-20.6641H1412.96V-18.5796C1412.1 -18.2833 1411.49 -17.4715 1411.49 -16.5115C1411.49 -16.3689 1411.5 -16.2318 1411.53 -16.1001L1361.23 12.9348C1360.65 12.2711 1359.83 11.8268 1358.89 11.7335V-20.6641H1358.17V11.7335C1357.25 11.8268 1356.42 12.2711 1355.83 12.9348L1307.91 -14.7287C1308.13 -15.2828 1308.25 -15.8807 1308.25 -16.5115C1308.25 -19.1939 1306.07 -21.3717 1303.39 -21.3717C1300.71 -21.3717 1298.54 -19.1939 1298.54 -16.5115C1298.54 -15.8807 1298.65 -15.2828 1298.87 -14.7287L1250.42 13.242C1249.95 12.7538 1249.31 12.4247 1248.61 12.3369V-20.6641H1247.89V12.3369C1247.18 12.4247 1246.55 12.7538 1246.08 13.242L1198.17 -14.416C1198.36 -14.9701 1198.47 -15.5625 1198.47 -16.1769C1198.47 -19.1391 1196.07 -21.5417 1193.1 -21.5417C1190.15 -21.5417 1187.74 -19.1391 1187.74 -16.1769C1187.74 -15.5625 1187.85 -14.9701 1188.04 -14.416L1140.57 12.9842C1139.93 12.2711 1139 11.8158 1137.96 11.8158C1136.93 11.8158 1135.99 12.2711 1135.35 12.9842L1086.03 -15.4912C1086.08 -15.7106 1086.1 -15.941 1086.1 -16.1769C1086.1 -17.7403 1085.01 -19.0513 1083.54 -19.3804V-20.6641H1082.1V-19.3804C1080.63 -19.0513 1079.54 -17.7403 1079.54 -16.1769C1079.54 -15.941 1079.56 -15.7106 1079.61 -15.4912L1029.85 13.242C1029.38 12.7538 1028.75 12.4247 1028.04 12.3369V-20.6641H1027.32V12.3369C1026.61 12.4247 1025.98 12.7538 1025.51 13.242L977.056 -14.7287C977.275 -15.2828 977.396 -15.8807 977.396 -16.5115C977.396 -19.1939 975.218 -21.3717 972.535 -21.3717C969.853 -21.3717 967.675 -19.1939 967.675 -16.5115C967.675 -15.8807 967.796 -15.2828 968.015 -14.7287L933.177 5.38125V7.04337L968.734 -13.489C969.623 -12.3699 970.994 -11.6513 972.535 -11.6513C974.071 -11.6513 975.443 -12.3699 976.337 -13.489L1024.79 14.4872C1024.71 14.756 1024.67 15.0358 1024.67 15.3265C1024.67 15.7434 1024.76 16.1439 1024.91 16.5059L973.956 45.9248C973.611 45.5299 973.1 45.2775 972.535 45.2775C971.965 45.2775 971.46 45.5299 971.115 45.9248L933.177 24.0211V24.8549L970.753 46.5502C970.687 46.7422 970.648 46.9451 970.648 47.1591C970.648 48.2013 971.493 49.0461 972.535 49.0461C973.572 49.0461 974.417 48.2013 974.417 47.1591C974.417 46.9451 974.384 46.7422 974.318 46.5502L1025.27 17.1313C1025.68 17.6743 1026.28 18.0748 1026.96 18.2448V74.0162C1024.34 74.3673 1022.32 76.6164 1022.32 79.3317C1022.32 79.9461 1022.42 80.544 1022.61 81.0926L975.147 108.498C974.505 107.78 973.572 107.33 972.535 107.33C971.499 107.33 970.566 107.78 969.919 108.498L948.038 95.8623V95.4316L912.102 74.6853C912.382 73.846 912.354 72.908 911.97 72.0578L948.038 51.2292V50.4009L911.608 71.4324C911.065 70.6754 910.264 70.1817 909.398 70.0062V14.6736C909.985 14.5858 910.566 14.3883 911.109 14.0757C913.221 12.8524 914.071 10.2852 913.199 8.08547L948.038 -12.03V-13.6866L912.48 6.84025C911.01 4.98614 908.361 4.43759 906.249 5.66086C905.706 5.97354 905.245 6.37398 904.878 6.84025L855.689 -21.5584C855.716 -21.69 855.727 -21.8326 855.727 -21.9698C855.727 -22.244 855.678 -22.5019 855.59 -22.7432L861.454 -26.1278H860.017L855.228 -23.3631C854.976 -23.6703 854.641 -23.9062 854.257 -24.0433V-26.1278H852.82V-24.0433C851.959 -23.7416 851.344 -22.9297 851.344 -21.9698C851.344 -21.8326 851.361 -21.69 851.383 -21.5584L801.097 7.47657C800.51 6.81282 799.681 6.3685 798.754 6.27524V-26.1278H798.036V6.27524C797.103 6.3685 796.28 6.81282 795.693 7.47657L747.772 -20.1925C747.991 -20.741 748.112 -21.3444 748.112 -21.9698C748.112 -24.6522 745.934 -26.8299 743.252 -26.8299C740.569 -26.8299 738.392 -24.6522 738.392 -21.9698C738.392 -21.3444 738.512 -20.741 738.732 -20.1925L690.278 7.78376C689.806 7.29555 689.175 6.96642 688.468 6.87865V-26.1278H687.749V6.87865C687.042 6.96642 686.411 7.29555 685.939 7.78376L638.034 -19.8743C638.226 -20.4283 638.33 -21.0208 638.33 -21.6351C638.33 -24.5973 635.927 -27 632.965 -27C630.003 -27 627.6 -24.5973 627.6 -21.6351C627.6 -21.0208 627.705 -20.4283 627.897 -19.8743L580.436 7.52594C579.794 6.81282 578.861 6.35752 577.825 6.35752C576.788 6.35752 575.85 6.81282 575.208 7.52594L525.888 -20.9495C525.937 -21.1689 525.959 -21.3993 525.959 -21.6351C525.959 -23.204 524.867 -24.5096 523.397 -24.8387V-26.1278H521.96V-24.8387C520.495 -24.5096 519.398 -23.204 519.398 -21.6351C519.398 -21.3993 519.426 -21.1689 519.469 -20.9495L471.161 6.94312C470.292 6.03338 469.114 5.51143 467.895 5.44735V-26.1278H467.176V5.46286C466.505 5.52737 465.837 5.73333 465.216 6.09226C464.768 6.34718 464.38 6.66407 464.052 7.02215L416.917 -20.1925C417.131 -20.741 417.252 -21.3444 417.252 -21.9698C417.252 -22.5735 417.142 -23.1516 416.94 -23.6851L420.415 -25.6909H418.978L416.635 -24.3407ZM468.359 68.5727V15.105C468.946 15.0172 469.527 14.8197 470.07 14.5071C472.182 13.2893 473.033 10.7221 472.166 8.51687L506.999 -11.5931V-12.0873L520.078 -19.6384C520.676 -18.8595 521.62 -18.3548 522.679 -18.3548C523.737 -18.3548 524.681 -18.8595 525.284 -19.6384L574.489 8.77116C574.374 9.11675 574.314 9.48428 574.314 9.86827C574.314 10.3784 574.424 10.8611 574.621 11.3L524.105 40.4666C523.968 40.313 523.809 40.1758 523.622 40.0716C522.722 39.5505 521.57 39.8577 521.049 40.7628C520.528 41.6624 520.835 42.8144 521.741 43.3355C521.922 43.4397 522.119 43.511 522.322 43.5549V102.393C521.642 102.475 521 102.788 520.512 103.292L472.607 75.6343C472.799 75.0803 472.903 74.4878 472.903 73.8735C472.903 73.0743 472.727 72.3155 472.413 71.6336L506.999 51.6606V50.8323L472.067 70.9993C471.254 69.7228 469.917 68.812 468.359 68.5727ZM462.708 71.5384C462.365 72.2446 462.173 73.0369 462.173 73.8735C462.173 74.4878 462.277 75.0803 462.469 75.6343L415.009 103.035C414.367 102.321 413.434 101.866 412.392 101.866C411.355 101.866 410.423 102.321 409.781 103.035L373.033 81.822V82.1932L360.568 74.996C360.612 74.7711 360.64 74.5407 360.64 74.3049C360.64 72.7415 359.542 71.4305 358.078 71.1013V13.8323C359.723 13.4977 360.963 12.0441 360.963 10.2997C360.963 9.89922 360.897 9.51523 360.777 9.15319L408.881 -18.6192C409.711 -17.7459 410.862 -17.181 412.143 -17.1159V39.8357C411.678 39.8977 411.265 40.1305 410.971 40.4666L373.033 18.5628V19.3912L410.615 41.0864C410.549 41.2784 410.51 41.4869 410.51 41.7008C410.51 41.9354 410.553 42.1599 410.631 42.3671C410.662 42.6099 410.74 42.8507 410.871 43.0757C411.386 43.9753 412.544 44.288 413.443 43.7669C413.63 43.6572 413.789 43.5255 413.921 43.3719L462.708 71.5384ZM466.819 15.0883V68.558C465.254 68.7675 463.902 69.6534 463.066 70.911L414.283 42.7466C414.421 42.3434 414.421 41.8891 414.264 41.4701C414.247 41.3374 414.217 41.2086 414.175 41.0864L463.398 12.6676C463.409 12.6883 463.421 12.7091 463.433 12.7298C464.188 14.025 465.449 14.8503 466.819 15.0883ZM415.982 -18.6981L463.12 8.51687C462.69 9.61784 462.66 10.8647 463.095 12.0165L413.818 40.4666C413.571 40.184 413.239 39.9744 412.862 39.878V-17.132C414.096 -17.2506 415.193 -17.8313 415.982 -18.6981ZM628.549 -18.5907L581.154 8.77116C581.27 9.11675 581.33 9.48428 581.33 9.86827C581.33 10.3784 581.22 10.8611 581.023 11.3L628.034 38.4369C629.74 35.8477 633.201 35.0085 635.922 36.5773C638.752 38.212 639.723 41.8325 638.089 44.663C637.057 46.4458 635.236 47.4881 633.327 47.6087V102.541C633.689 102.585 634.057 102.705 634.397 102.897C634.622 103.029 634.825 103.188 635.006 103.369L683.043 75.6343C682.851 75.0803 682.746 74.4878 682.746 73.8735C682.746 71.1581 684.771 68.9091 687.387 68.558V12.7866C686.076 12.4629 685.1 11.278 685.1 9.86827C685.1 9.57753 685.144 9.29229 685.22 9.02898L637.381 -18.5907C636.41 -17.1919 634.797 -16.2758 632.965 -16.2758C631.138 -16.2758 629.52 -17.1919 628.549 -18.5907ZM739.45 -18.9472L690.997 9.02898C691.073 9.29229 691.117 9.57753 691.117 9.86827C691.117 10.2852 691.03 10.6856 690.876 11.0477L741.831 40.4666C742.177 40.0716 742.681 39.8193 743.252 39.8193C743.817 39.8193 744.327 40.0716 744.673 40.4666L795.107 11.3494C794.904 10.8941 794.788 10.3949 794.788 9.86827C794.788 9.46782 794.854 9.07835 794.975 8.72179L747.053 -18.9472C746.165 -17.8282 744.788 -17.1151 743.252 -17.1151C741.71 -17.1151 740.339 -17.8282 739.45 -18.9472ZM852.107 -20.3131L801.815 8.72179C801.936 9.07835 802.002 9.46782 802.002 9.86827C802.002 11.6127 800.762 13.0663 799.111 13.4009V70.6699C800.581 70.999 801.673 72.3101 801.673 73.8735C801.673 74.1093 801.651 74.3397 801.601 74.5592L851.048 103.106C851.218 102.958 851.405 102.821 851.608 102.7C852.962 101.921 854.647 102.212 855.661 103.32L905.256 74.6853C904.965 73.8076 905.026 72.8696 905.393 72.0578L854.959 42.9405C854.828 43.0941 854.663 43.2258 854.477 43.3355C853.577 43.8566 852.425 43.544 851.904 42.6443C851.383 41.7447 851.695 40.5927 852.595 40.0716C852.781 39.9619 852.979 39.8906 853.176 39.8522V-19.8085C852.77 -19.8743 852.403 -20.0553 852.107 -20.3131ZM904.159 8.08547L854.97 -20.3131C854.674 -20.0553 854.301 -19.8743 853.895 -19.8085V39.8522C854.411 39.9564 854.882 40.2691 855.168 40.7628C855.453 41.251 855.491 41.816 855.316 42.3152L905.75 71.4324C906.04 71.032 906.419 70.6809 906.874 70.4176C907.225 70.2146 907.587 70.0775 907.96 70.0062V14.6681C906.551 14.4597 905.24 13.6259 904.472 12.2929C903.704 10.9654 903.638 9.41845 904.159 8.08547ZM745.863 103.035L795.183 74.5592C795.139 74.3397 795.112 74.1093 795.112 73.8735C795.112 72.3101 796.209 70.999 797.674 70.6699V13.4009C796.769 13.2199 795.99 12.6933 795.469 11.9692L745.035 41.0864C745.1 41.2784 745.133 41.4869 745.133 41.7008C745.133 42.7431 744.289 43.5878 743.252 43.5878C742.21 43.5878 741.365 42.7431 741.365 41.7008C741.365 41.4869 741.403 41.2784 741.469 41.0864L690.514 11.6675C690.102 12.2161 689.51 12.6165 688.83 12.7866V68.558C691.446 68.9091 693.471 71.1581 693.471 73.8735C693.471 74.4878 693.366 75.0803 693.174 75.6343L740.641 103.035C741.283 102.321 742.215 101.866 743.252 101.866C744.289 101.866 745.221 102.321 745.863 103.035ZM632.247 166.129V108.142C632.005 108.081 631.764 107.982 631.533 107.851C631.199 107.653 630.914 107.401 630.689 107.105L579.816 136.474C580.03 137.05 579.991 137.709 579.662 138.274C579.075 139.294 577.775 139.64 576.76 139.053C575.85 138.526 575.477 137.429 575.828 136.474L525.087 107.182C524.659 107.752 524.055 108.131 523.397 108.295V163.2C524.16 163.293 524.917 163.54 525.624 163.946C528.23 165.449 529.256 168.652 528.104 171.351L573.118 197.336C574.879 194.994 578.165 194.281 580.77 195.784C581.478 196.19 582.065 196.722 582.531 197.336L630.08 169.887C629.86 169.13 629.937 168.285 630.36 167.544C630.787 166.809 631.479 166.321 632.247 166.129ZM523.041 43.5494V102.393C523.43 102.437 523.82 102.563 524.182 102.771C524.434 102.919 524.659 103.095 524.851 103.292L573.305 75.3162C572.783 73.9887 572.844 72.4417 573.617 71.1088C574.385 69.7758 575.691 68.9475 577.106 68.7335V13.2967C576.234 13.1157 575.482 12.6165 574.983 11.9199L524.461 41.0864C524.631 41.5856 524.593 42.1561 524.313 42.6443C524.028 43.138 523.556 43.4507 523.041 43.5494ZM627.672 39.0623L580.666 11.9199C580.161 12.6165 579.41 13.1157 578.543 13.2967V68.7335C579.13 68.8213 579.706 69.0188 580.255 69.3314C582.361 70.5492 583.211 73.1165 582.345 75.3216L630.93 103.369C631.385 102.908 631.978 102.618 632.609 102.541V47.6087C631.72 47.5539 630.831 47.3015 630.008 46.8243C627.282 45.2554 626.284 41.838 627.672 39.0623ZM579.459 135.854L630.332 106.485C630.085 105.898 630.036 105.24 630.211 104.614L581.626 76.5669C580.156 78.4155 577.506 78.964 575.395 77.7462C574.851 77.4336 574.391 77.0276 574.023 76.5669L525.569 104.538C525.756 105.19 525.729 105.903 525.443 106.556L576.19 135.854C576.837 135.07 577.978 134.845 578.883 135.372C579.108 135.503 579.3 135.663 579.459 135.854ZM1080.22 -14.1802L1030.57 14.4872C1030.64 14.756 1030.68 15.0358 1030.68 15.3265C1030.68 16.7363 1029.71 17.9212 1028.39 18.2448V74.0162C1031.02 74.3673 1033.04 76.6164 1033.04 79.3317C1033.04 79.9461 1032.94 80.544 1032.74 81.0926L1080.65 108.751C1081.14 108.246 1081.78 107.933 1082.46 107.851V49.0132C1082.26 48.9748 1082.07 48.9035 1081.88 48.7938C1080.98 48.2726 1080.67 47.1207 1081.19 46.221C1081.71 45.3214 1082.86 45.0087 1083.76 45.5299C1083.95 45.6396 1084.11 45.7712 1084.24 45.9248L1134.76 16.7582C1134.57 16.3194 1134.46 15.8367 1134.46 15.3265C1134.46 14.9425 1134.52 14.575 1134.63 14.2294L1085.42 -14.1802C1084.82 -13.4012 1083.88 -12.8965 1082.82 -12.8965C1081.76 -12.8965 1080.82 -13.4012 1080.22 -14.1802ZM1188.69 -13.1324L1141.3 14.2294C1141.41 14.575 1141.47 14.9425 1141.47 15.3265C1141.47 15.8367 1141.36 16.3194 1141.17 16.7582L1188.17 43.8952C1189.88 41.306 1193.34 40.4667 1196.07 42.0356C1198.89 43.6703 1199.86 47.2907 1198.23 50.1213C1197.2 51.9041 1195.38 52.9463 1193.47 53.067V107.999C1193.83 108.043 1194.19 108.164 1194.53 108.361C1194.77 108.493 1194.97 108.652 1195.14 108.827L1243.18 81.0926C1242.99 80.544 1242.88 79.9461 1242.88 79.3317C1242.88 76.6164 1244.91 74.3673 1247.53 74.0162V18.2448C1246.21 17.9212 1245.24 16.7363 1245.24 15.3265C1245.24 15.0358 1245.28 14.756 1245.36 14.4872L1197.52 -13.1324C1196.55 -11.7336 1194.94 -10.8175 1193.1 -10.8175C1191.28 -10.8175 1189.66 -11.7336 1188.69 -13.1324ZM1299.59 -13.489L1251.13 14.4872C1251.21 14.756 1251.26 15.0358 1251.26 15.3265C1251.26 15.7434 1251.17 16.1439 1251.01 16.5059L1301.97 45.9248C1302.31 45.5299 1302.82 45.2775 1303.39 45.2775C1303.96 45.2775 1304.47 45.5299 1304.81 45.9248L1355.24 16.8076C1355.04 16.3578 1354.93 15.8531 1354.93 15.3265C1354.93 14.9261 1354.99 14.5421 1355.11 14.18L1307.19 -13.489C1306.3 -12.3699 1304.93 -11.6513 1303.39 -11.6513C1301.85 -11.6513 1300.48 -12.3699 1299.59 -13.489ZM1412.24 -14.8549L1361.95 14.18C1362.07 14.5421 1362.14 14.9261 1362.14 15.3265C1362.14 17.0709 1360.9 18.5246 1359.25 18.8592V76.1282C1360.72 76.4573 1361.82 77.7683 1361.82 79.3317C1361.82 79.5676 1361.79 79.798 1361.74 80.0229L1411.19 108.57C1411.36 108.416 1411.54 108.279 1411.75 108.158C1413.1 107.379 1414.78 107.675 1415.8 108.778L1465.4 80.1436C1465.1 79.2659 1465.16 78.3279 1465.53 77.516L1415.1 48.3988C1414.97 48.5524 1414.81 48.6841 1414.62 48.7938C1413.72 49.3149 1412.56 49.0022 1412.05 48.1026C1411.53 47.203 1411.83 46.051 1412.73 45.5299C1412.92 45.4202 1413.12 45.3488 1413.32 45.3104V-14.3502C1412.91 -14.416 1412.54 -14.5971 1412.24 -14.8549ZM1464.3 13.5437L1415.11 -14.8549C1414.81 -14.5971 1414.44 -14.416 1414.04 -14.3502V45.3104C1414.55 45.4147 1415.03 45.7273 1415.31 46.221C1415.59 46.7093 1415.63 47.2798 1415.46 47.7735L1465.89 76.8907C1466.18 76.4902 1466.56 76.1391 1467.02 75.8758C1467.36 75.6729 1467.73 75.5412 1468.1 75.4644V20.1318C1466.69 19.9179 1465.38 19.0841 1464.61 17.7566C1463.84 16.4236 1463.78 14.8767 1464.3 13.5437ZM1306.01 108.498L1355.33 80.0229C1355.28 79.798 1355.26 79.5676 1355.26 79.3317C1355.26 77.7683 1356.35 76.4573 1357.82 76.1282V18.8592C1356.91 18.6782 1356.13 18.1516 1355.61 17.433L1305.17 46.5502C1305.24 46.7422 1305.28 46.9451 1305.28 47.1591C1305.28 48.2013 1304.43 49.0461 1303.39 49.0461C1302.35 49.0461 1301.51 48.2013 1301.51 47.1591C1301.51 46.9451 1301.54 46.7422 1301.61 46.5502L1250.65 17.1313C1250.24 17.6743 1249.65 18.0748 1248.97 18.2448V74.0162C1251.59 74.3673 1253.61 76.6164 1253.61 79.3317C1253.61 79.9461 1253.5 80.544 1253.31 81.0926L1300.78 108.498C1301.42 107.78 1302.35 107.33 1303.39 107.33C1304.43 107.33 1305.36 107.78 1306.01 108.498ZM1192.38 171.587V113.605C1192.14 113.54 1191.9 113.441 1191.68 113.309C1191.34 113.117 1191.05 112.859 1190.83 112.563L1139.96 141.938C1140.17 142.509 1140.13 143.167 1139.81 143.737C1139.22 144.752 1137.92 145.098 1136.9 144.511C1135.99 143.99 1135.61 142.887 1135.97 141.933L1085.22 112.64C1084.8 113.21 1084.2 113.594 1083.54 113.753V168.658C1084.3 168.751 1085.06 168.998 1085.77 169.404C1088.37 170.907 1089.39 174.111 1088.25 176.81L1133.26 202.8C1135.02 200.452 1138.3 199.739 1140.91 201.242C1141.62 201.648 1142.21 202.186 1142.67 202.8L1190.22 175.345C1190 174.588 1190.08 173.743 1190.5 173.003C1190.93 172.268 1191.62 171.779 1192.38 171.587ZM1083.18 49.0132V107.851C1083.57 107.895 1083.96 108.021 1084.33 108.23C1084.58 108.378 1084.8 108.553 1084.99 108.751L1133.44 80.7799C1132.92 79.4469 1132.99 77.9 1133.76 76.567C1134.52 75.2395 1135.83 74.4057 1137.24 74.1918V18.7605C1136.38 18.5794 1135.63 18.0748 1135.12 17.3781L1084.6 46.5502C1084.77 47.0439 1084.74 47.6144 1084.45 48.1026C1084.17 48.5963 1083.69 48.909 1083.18 49.0132ZM1187.81 44.5205L1140.8 17.3781C1140.3 18.0748 1139.55 18.5794 1138.68 18.7605V74.1918C1139.27 74.2795 1139.85 74.477 1140.39 74.7897C1142.5 76.0075 1143.35 78.5747 1142.48 80.7799L1191.07 108.827C1191.52 108.367 1192.12 108.081 1192.75 107.999V53.067C1191.86 53.0121 1190.97 52.7598 1190.15 52.2826C1187.43 50.7137 1186.42 47.2962 1187.81 44.5205ZM1139.6 141.313L1190.47 111.943C1190.22 111.362 1190.17 110.698 1190.35 110.073L1141.76 82.0251C1140.29 83.8792 1137.64 84.4223 1135.53 83.2045C1134.99 82.8918 1134.53 82.4859 1134.16 82.0251L1085.71 109.996C1085.89 110.649 1085.87 111.362 1085.59 112.015L1136.33 141.313C1136.98 140.528 1138.12 140.303 1139.03 140.83C1139.25 140.962 1139.44 141.126 1139.6 141.313ZM29.3902 9.46038L79.0397 -19.207C79.6431 -18.4281 80.5866 -17.9234 81.6453 -17.9234C82.704 -17.9234 83.6421 -18.4281 84.2455 -19.207L133.451 9.20256C133.341 9.54815 133.281 9.91568 133.281 10.2997C133.281 10.8098 133.39 11.2925 133.582 11.7314L83.0661 40.898C82.9344 40.7444 82.7699 40.6127 82.5834 40.503C81.6837 39.9819 80.5318 40.2946 80.0107 41.1942C79.4895 42.0938 79.8022 43.2458 80.7018 43.7669C80.8883 43.8766 81.0858 43.9479 81.2833 43.9863V102.824C80.6031 102.906 79.9613 103.219 79.4731 103.724L31.5679 76.0657C31.7599 75.5172 31.8641 74.9193 31.8641 74.3049C31.8641 71.5895 29.84 69.3405 27.2179 68.9894V13.218C28.5344 12.8943 29.5053 11.7094 29.5053 10.2997C29.5053 10.0089 29.4669 9.72917 29.3902 9.46038ZM140.121 9.20256L187.516 -18.1593C188.482 -16.7605 190.1 -15.8444 191.926 -15.8444C193.759 -15.8444 195.377 -16.7605 196.342 -18.1593L244.182 9.46038C244.105 9.72917 244.066 10.0089 244.066 10.2997C244.066 11.7094 245.037 12.8943 246.354 13.218V68.9894C243.732 69.3405 241.708 71.5895 241.708 74.3049C241.708 74.9193 241.812 75.5172 242.004 76.0657L193.967 103.801C193.792 103.625 193.589 103.466 193.358 103.334C193.018 103.137 192.656 103.016 192.289 102.972V48.0401C194.203 47.9194 196.024 46.8772 197.05 45.0944C198.685 42.2639 197.714 38.6434 194.889 37.0087C192.162 35.4399 188.706 36.2792 186.995 38.8683L139.989 11.7314C140.181 11.2925 140.291 10.8098 140.291 10.2997C140.291 9.91568 140.231 9.54815 140.121 9.20256ZM249.958 9.46038L298.412 -18.5158C299.306 -17.3968 300.677 -16.6782 302.213 -16.6782C303.755 -16.6782 305.126 -17.3968 306.015 -18.5158L353.936 9.15319C353.816 9.51523 353.75 9.89922 353.75 10.2997C353.75 10.8263 353.865 11.3309 354.068 11.7808L303.634 40.898C303.288 40.503 302.784 40.2507 302.213 40.2507C301.648 40.2507 301.138 40.503 300.792 40.898L249.837 11.4791C249.991 11.117 250.079 10.7166 250.079 10.2997C250.079 10.0089 250.035 9.72917 249.958 9.46038ZM354.15 74.996L304.83 103.471C304.182 102.753 303.25 102.303 302.213 102.303C301.176 102.303 300.244 102.753 299.602 103.471L252.136 76.0657C252.328 75.5172 252.437 74.9193 252.437 74.3049C252.437 71.5895 250.413 69.3405 247.791 68.9894V13.218C248.477 13.0479 249.064 12.6475 249.475 12.1044L300.43 41.5233C300.365 41.7153 300.332 41.9183 300.332 42.1322C300.332 43.1745 301.176 44.0192 302.213 44.0192C303.255 44.0192 304.1 43.1745 304.1 42.1322C304.1 41.9183 304.062 41.7153 303.996 41.5233L354.43 12.4061C354.951 13.1247 355.735 13.6513 356.641 13.8323V71.1013C355.17 71.4305 354.079 72.7415 354.079 74.3049C354.079 74.5407 354.101 74.7711 354.15 74.996ZM191.208 108.578V166.561C190.445 166.753 189.749 167.241 189.326 167.976C188.898 168.716 188.822 169.561 189.041 170.318L141.492 197.773C141.032 197.159 140.439 196.621 139.732 196.215C137.126 194.712 133.846 195.425 132.079 197.773L87.0705 171.783C88.217 169.084 87.1967 165.88 84.5911 164.377C83.8834 163.971 83.1264 163.725 82.3639 163.631V108.727C83.0222 108.568 83.6201 108.184 84.048 107.613L134.789 136.906C134.438 137.86 134.811 138.963 135.722 139.484C136.742 140.071 138.042 139.725 138.629 138.711C138.953 138.14 138.991 137.482 138.783 136.911L189.65 107.536C189.875 107.832 190.16 108.09 190.5 108.282C190.725 108.414 190.967 108.513 191.208 108.578ZM82.0019 102.824V43.9863C82.5175 43.8821 82.9893 43.5694 83.2745 43.0757C83.5598 42.5875 83.5982 42.017 83.4227 41.5233L133.944 12.3513C134.449 13.0479 135.201 13.5526 136.067 13.7336V69.1649C134.652 69.3789 133.346 70.2127 132.579 71.5402C131.811 72.8731 131.745 74.4201 132.266 75.7531L83.8121 103.724C83.6201 103.526 83.4007 103.351 83.1484 103.203C82.7863 102.994 82.3969 102.868 82.0019 102.824ZM139.627 12.3513L186.633 39.4937C185.245 42.2694 186.249 45.6868 188.97 47.2557C189.793 47.7329 190.681 47.9853 191.57 48.0401V102.972C190.945 103.055 190.347 103.34 189.891 103.801L141.306 75.7531C142.178 73.5479 141.328 70.9806 139.216 69.7628C138.673 69.4502 138.091 69.2527 137.505 69.1649V13.7336C138.371 13.5526 139.123 13.0479 139.627 12.3513ZM189.293 106.916L138.421 136.286C138.267 136.099 138.075 135.935 137.85 135.803C136.939 135.277 135.799 135.501 135.151 136.286L84.41 106.988C84.6898 106.335 84.7172 105.622 84.5307 104.969L132.984 76.9983C133.352 77.459 133.813 77.865 134.356 78.1777C136.468 79.3954 139.117 78.8524 140.587 76.9983L189.173 105.046C188.997 105.671 189.047 106.335 189.293 106.916Z" fill="url(#paint0_linear_4_895)"/>
<defs>
<linearGradient id="paint0_linear_4_895" x1="720.088" y1="-27" x2="720.088" y2="212.239" gradientUnits="userSpaceOnUse">
<stop stop-color="#FB7A02"/>
<stop offset="1" stop-color="#FFBC50" stop-opacity="0.3"/>
</linearGradient>
</defs>
</svg>
