<svg width="261" height="450" viewBox="0 0 261 450" fill="none" xmlns="http://www.w3.org/2000/svg">
<mask id="mask0_27_132" style="mask-type:luminance" maskUnits="userSpaceOnUse" x="0" y="0" width="260" height="245">
<path d="M0.673096 0H259.896V244.771H0.673096V0Z" fill="white"/>
</mask>
<g mask="url(#mask0_27_132)">
<path fill-rule="evenodd" clip-rule="evenodd" d="M240.602 217.069H284.129V218.471H240.602C240.254 221.312 237.833 223.514 234.899 223.514C231.73 223.514 229.154 220.941 229.154 217.77C229.154 215.898 230.054 214.233 231.444 213.185L205.039 167.453C204.671 167.578 204.276 167.649 203.865 167.649C202.101 167.649 200.626 166.387 200.299 164.717H146.65C146.308 167.272 144.118 169.243 141.469 169.243C138.584 169.243 136.242 166.901 136.242 164.016C136.242 162.231 137.136 160.657 138.499 159.711L111.825 113.509C111.49 113.62 111.13 113.679 110.76 113.679C108.87 113.679 107.34 112.148 107.34 110.262C107.34 108.375 108.87 106.842 110.76 106.842C111.13 106.842 111.49 106.9 111.825 107.011L139.522 59.0426C138.759 58.4557 138.272 57.5387 138.272 56.5049C138.272 54.741 139.703 53.3072 141.469 53.3072C142.994 53.3072 144.27 54.376 144.591 55.804H200.419C200.743 54.2008 202.165 52.9889 203.865 52.9889C204.256 52.9889 204.63 53.0531 204.98 53.1699L232.919 4.78056C232.39 4.26659 232.063 3.54528 232.063 2.75095C232.063 1.18567 233.333 -0.0846558 234.899 -0.0846558C236.224 -0.0846558 237.337 0.823557 237.649 2.05008H284.129V3.45183H237.649C237.337 4.67835 236.224 5.58948 234.899 5.58948C234.633 5.58948 234.376 5.55152 234.131 5.48143L206.195 53.8737C206.84 54.4461 207.273 55.2492 207.363 56.1545H260.177C260.361 53.1349 262.869 50.7402 265.936 50.7402C269.119 50.7402 271.703 53.3218 271.703 56.5049C271.703 58.5141 270.675 60.2838 269.116 61.3175L284.129 87.317V88.7187L268.511 61.668C267.734 62.0564 266.861 62.2725 265.936 62.2725C262.869 62.2725 260.361 59.8778 260.177 56.8553H207.363C207.273 57.7635 206.84 58.5666 206.195 59.139L233.164 105.852C233.701 105.642 234.288 105.525 234.899 105.525C237.276 105.525 239.244 107.277 239.586 109.561H284.129V110.963H239.586C239.244 113.243 237.276 114.998 234.899 114.998C234.288 114.998 233.701 114.882 233.164 114.668L206.253 161.279C206.931 161.875 207.389 162.716 207.48 163.665H263.891C264.058 162.687 264.91 161.942 265.936 161.942C266.187 161.942 266.429 161.989 266.654 162.071L284.129 131.802V133.204L267.258 162.421C267.717 162.804 268.006 163.376 268.006 164.016C268.006 165.16 267.077 166.089 265.936 166.089C264.91 166.089 264.058 165.344 263.891 164.366H207.48C207.389 165.315 206.931 166.156 206.253 166.752L232.656 212.481C233.345 212.189 234.104 212.025 234.899 212.025C237.833 212.025 240.254 214.23 240.602 217.069ZM201.747 164.717C202.039 165.604 202.877 166.247 203.865 166.247C204.019 166.247 204.171 166.229 204.317 166.2C204.793 166.101 205.217 165.85 205.529 165.499C205.807 165.187 205.999 164.795 206.066 164.366C206.087 164.252 206.096 164.135 206.096 164.016C206.096 163.896 206.087 163.779 206.066 163.665C205.999 163.233 205.807 162.845 205.529 162.532C205.217 162.182 204.793 161.931 204.317 161.831C204.171 161.802 204.019 161.785 203.865 161.785C203.584 161.785 203.313 161.837 203.067 161.934C202.845 162.018 202.641 162.135 202.46 162.284C202.133 162.55 201.882 162.906 201.747 163.315C201.674 163.537 201.633 163.77 201.633 164.016C201.633 164.261 201.674 164.495 201.747 164.717ZM146.65 163.315H200.299C200.48 162.389 201.014 161.589 201.753 161.06L173.426 111.996C173.239 112.064 173.038 112.099 172.828 112.099C171.814 112.099 170.994 111.275 170.994 110.262C170.994 109.248 171.814 108.425 172.828 108.425C173.038 108.425 173.239 108.46 173.426 108.524L201.812 59.3609C201.108 58.8528 200.597 58.0906 200.419 57.2058H144.591C144.27 58.6367 142.994 59.7055 141.469 59.7055C141.239 59.7055 141.014 59.6793 140.798 59.6325L113.037 107.712C113.738 108.34 114.176 109.248 114.176 110.262C114.176 111.272 113.738 112.18 113.037 112.808L139.752 159.077C140.29 158.891 140.868 158.788 141.469 158.788C144.118 158.788 146.308 160.76 146.65 163.315ZM236.151 2.05008C235.906 1.61204 235.439 1.31417 234.899 1.31417C234.107 1.31417 233.465 1.95955 233.465 2.75095C233.465 3.01962 233.538 3.27077 233.666 3.48687C233.914 3.89863 234.364 4.17898 234.881 4.18482C234.887 4.18482 234.893 4.18774 234.899 4.18774C235.439 4.18774 235.906 3.88987 236.151 3.45183C236.268 3.24448 236.335 3.00502 236.335 2.75095C236.335 2.49689 236.268 2.25742 236.151 2.05008ZM231.952 106.556L204.98 59.8399C204.63 59.9567 204.256 60.0209 203.865 60.0209C203.348 60.0209 202.86 59.91 202.419 59.7114L174.034 108.875C174.422 109.21 174.664 109.707 174.664 110.262C174.664 110.814 174.422 111.31 174.034 111.646L202.361 160.71C202.819 160.5 203.327 160.383 203.865 160.383C204.276 160.383 204.671 160.453 205.039 160.579L231.952 113.965C230.863 113.097 230.165 111.76 230.165 110.262C230.165 108.761 230.863 107.423 231.952 106.556ZM220.472 221.405C220.808 221.294 221.167 221.233 221.541 221.233C223.428 221.233 224.958 222.766 224.958 224.653C224.958 226.539 223.428 228.072 221.541 228.072C221.167 228.072 220.808 228.014 220.472 227.903L210.692 244.844H209.074L219.26 227.199C218.562 226.574 218.121 225.666 218.121 224.653C218.121 223.642 218.562 222.731 219.26 222.106L192.548 175.837C192.008 176.024 191.43 176.126 190.828 176.126C188.183 176.126 185.989 174.155 185.648 171.6H131.281C131.117 172.266 130.726 172.844 130.191 173.244L158.871 222.915C159.058 222.851 159.26 222.816 159.47 222.816C160.484 222.816 161.307 223.639 161.307 224.653C161.307 225.666 160.484 226.49 159.47 226.49C159.26 226.49 159.058 226.455 158.871 226.39L148.218 244.844H147.406L158.264 226.04C157.879 225.701 157.633 225.208 157.633 224.653C157.633 224.101 157.879 223.604 158.264 223.269L129.587 173.594C129.233 173.746 128.842 173.831 128.433 173.831C128.15 173.831 127.878 173.79 127.618 173.714L100.702 220.337C101.999 221.329 102.837 222.895 102.837 224.653C102.837 226.414 101.999 227.976 100.702 228.972L109.866 244.844H108.248L99.4872 229.673C98.8448 229.941 98.138 230.09 97.3992 230.09C94.6366 230.09 92.35 228.023 92.0083 225.354H38.0266C37.8689 225.967 37.5039 226.498 37.0133 226.872L47.3891 244.844H46.5802L36.4088 227.223C36.0758 227.363 35.7108 227.442 35.3282 227.442C35.0713 227.442 34.823 227.407 34.5865 227.339L24.4793 244.844H22.8615L33.3716 226.639C32.8606 226.133 32.5423 225.43 32.5423 224.653C32.5423 223.876 32.8606 223.172 33.3716 222.667L5.46819 174.336C5.10023 174.462 4.70307 174.532 4.29423 174.532C2.28798 174.532 0.661377 172.902 0.661377 170.899C0.661377 168.896 2.28798 167.266 4.29423 167.266C4.70307 167.266 5.10023 167.336 5.46819 167.462L31.8706 121.73C30.4835 120.681 29.584 119.017 29.584 117.145C29.584 113.973 32.1568 111.401 35.3282 111.401C38.2602 111.401 40.6841 113.603 41.0316 116.444H90.9921C91.3425 113.214 94.0788 110.7 97.3992 110.7C100.956 110.7 103.844 113.588 103.844 117.145C103.844 119.277 102.808 121.169 101.21 122.34L127.618 168.084C127.878 168.008 128.15 167.967 128.433 167.967C129.812 167.967 130.968 168.919 131.281 170.198H185.648C185.989 167.643 188.183 165.672 190.828 165.672C193.717 165.672 196.059 168.014 196.059 170.899C196.059 172.683 195.162 174.257 193.798 175.2L220.472 221.405ZM99.4872 219.633L126.404 173.013C125.928 172.555 125.606 171.938 125.525 171.249H68.4065C68.24 172.225 67.3873 172.972 66.3652 172.972C66.1111 172.972 65.8687 172.926 65.6468 172.844L37.0133 222.433C37.5039 222.807 37.8689 223.339 38.0266 223.952H92.0083C92.35 221.283 94.6366 219.215 97.3992 219.215C98.138 219.215 98.8448 219.364 99.4872 219.633ZM99.9924 227.745C100.874 227.004 101.435 225.894 101.435 224.653C101.435 223.415 100.874 222.302 99.9924 221.563C99.6362 221.262 99.2273 221.023 98.7805 220.859C98.3483 220.705 97.884 220.617 97.3992 220.617C95.4105 220.617 93.7576 222.06 93.4247 223.952C93.3838 224.18 93.3634 224.413 93.3634 224.653C93.3634 224.892 93.3838 225.126 93.4247 225.354C93.7576 227.249 95.4105 228.689 97.3992 228.689C97.884 228.689 98.3483 228.604 98.7805 228.446C99.2273 228.283 99.6362 228.043 99.9924 227.745ZM6.68011 173.635L34.5865 221.966C34.823 221.902 35.0713 221.867 35.3282 221.867C35.7108 221.867 36.0758 221.943 36.4088 222.083L65.0394 172.493C64.5838 172.111 64.2918 171.538 64.2918 170.899C64.2918 169.754 65.2204 168.825 66.3652 168.825C67.3873 168.825 68.24 169.57 68.4065 170.548H125.525C125.606 169.859 125.928 169.243 126.404 168.785L99.9953 123.044C99.201 123.394 98.322 123.59 97.3992 123.59C94.0788 123.59 91.3425 121.073 90.9921 117.846H41.0316C40.6841 120.684 38.2602 122.889 35.3282 122.889C34.531 122.889 33.7746 122.726 33.0855 122.434L6.68011 168.163C7.44231 168.828 7.92416 169.81 7.92416 170.899C7.92416 171.988 7.44231 172.969 6.68011 173.635ZM4.74396 168.714C4.59794 168.685 4.449 168.668 4.29423 168.668C3.06186 168.668 2.06312 169.666 2.06312 170.899C2.06312 172.128 3.06186 173.13 4.29423 173.13C4.449 173.13 4.59794 173.112 4.74396 173.083C5.22288 172.984 5.64633 172.733 5.9588 172.382C6.30924 171.988 6.52242 171.468 6.52242 170.899C6.52242 170.329 6.30924 169.81 5.9588 169.415C5.64633 169.065 5.22288 168.814 4.74396 168.714ZM100.503 121.119C101.683 120.194 102.443 118.757 102.443 117.145C102.443 114.359 100.182 112.102 97.3992 112.102C94.8527 112.102 92.7442 113.991 92.4026 116.444C92.3704 116.672 92.3558 116.905 92.3558 117.145C92.3558 117.381 92.3704 117.615 92.4026 117.846C92.7442 120.296 94.8527 122.188 97.3992 122.188C98.068 122.188 98.7046 122.057 99.2916 121.82C99.7296 121.642 100.136 121.406 100.503 121.119ZM237.109 233.735H284.129V235.137H237.109C236.82 235.972 236.023 236.573 235.091 236.573C234.954 236.573 234.82 236.559 234.688 236.535L229.89 244.844H228.272L233.476 235.835C233.152 235.458 232.954 234.97 232.954 234.436C232.954 233.259 233.912 232.301 235.091 232.301C236.023 232.301 236.82 232.9 237.109 233.735Z" fill="url(#paint0_linear_27_132)"/>
</g>
<mask id="mask1_27_132" style="mask-type:luminance" maskUnits="userSpaceOnUse" x="0" y="203" width="261" height="247">
<path d="M0 450H260.57V203.958H0V450Z" fill="white"/>
</mask>
<g mask="url(#mask1_27_132)">
<path fill-rule="evenodd" clip-rule="evenodd" d="M241.175 231.804H284.928V230.395H241.175C240.826 227.539 238.392 225.325 235.442 225.325C232.257 225.325 229.668 227.912 229.668 231.099C229.668 232.981 230.572 234.654 231.969 235.708L205.427 281.678C205.057 281.551 204.661 281.481 204.247 281.481C202.474 281.481 200.991 282.749 200.663 284.428H146.735C146.392 281.859 144.19 279.878 141.528 279.878C138.627 279.878 136.273 282.232 136.273 285.133C136.273 286.926 137.171 288.508 138.542 289.459L111.73 335.901C111.392 335.79 111.031 335.731 110.658 335.731C108.759 335.731 107.221 337.269 107.221 339.166C107.221 341.062 108.759 342.603 110.658 342.603C111.031 342.603 111.392 342.544 111.73 342.433L139.57 390.651C138.804 391.241 138.313 392.163 138.313 393.202C138.313 394.975 139.752 396.416 141.528 396.416C143.06 396.416 144.343 395.342 144.666 393.906H200.783C201.109 395.518 202.538 396.736 204.247 396.736C204.64 396.736 205.016 396.671 205.368 396.554L233.452 445.195C232.92 445.711 232.592 446.436 232.592 447.235C232.592 448.808 233.869 450.085 235.442 450.085C236.775 450.085 237.893 449.172 238.207 447.939H284.928V446.53H238.207C237.893 445.297 236.775 444.382 235.442 444.382C235.175 444.382 234.917 444.42 234.67 444.49L206.589 395.847C207.238 395.271 207.672 394.464 207.763 393.554H260.851C261.036 396.589 263.558 398.996 266.64 398.996C269.84 398.996 272.438 396.401 272.438 393.202C272.438 391.182 271.404 389.403 269.837 388.364L284.928 362.23V360.821L269.229 388.012C268.448 387.621 267.571 387.404 266.64 387.404C263.558 387.404 261.036 389.811 260.851 392.849H207.763C207.672 391.937 207.238 391.129 206.589 390.554L233.698 343.598C234.238 343.81 234.828 343.927 235.442 343.927C237.831 343.927 239.81 342.166 240.153 339.87H284.928V338.461H240.153C239.81 336.169 237.831 334.404 235.442 334.404C234.828 334.404 234.238 334.522 233.698 334.736L206.648 287.883C207.329 287.284 207.79 286.439 207.881 285.485H264.585C264.753 286.468 265.61 287.217 266.64 287.217C266.893 287.217 267.136 287.17 267.362 287.088L284.928 317.514V316.105L267.97 286.735C268.431 286.351 268.721 285.775 268.721 285.133C268.721 283.982 267.788 283.048 266.64 283.048C265.61 283.048 264.753 283.797 264.585 284.78H207.881C207.79 283.826 207.329 282.981 206.648 282.382L233.188 236.416C233.88 236.709 234.643 236.873 235.442 236.873C238.392 236.873 240.826 234.657 241.175 231.804ZM202.119 284.428C202.412 283.536 203.255 282.89 204.247 282.89C204.402 282.89 204.555 282.907 204.702 282.937C205.18 283.037 205.606 283.289 205.92 283.641C206.199 283.955 206.393 284.349 206.46 284.78C206.481 284.895 206.489 285.012 206.489 285.133C206.489 285.253 206.481 285.37 206.46 285.485C206.393 285.919 206.199 286.31 205.92 286.624C205.606 286.976 205.18 287.228 204.702 287.328C204.555 287.358 204.402 287.375 204.247 287.375C203.965 287.375 203.692 287.322 203.445 287.226C203.222 287.14 203.017 287.023 202.835 286.873C202.506 286.606 202.254 286.248 202.119 285.837C202.045 285.614 202.004 285.379 202.004 285.133C202.004 284.886 202.045 284.651 202.119 284.428ZM146.735 285.837H200.663C200.845 286.768 201.382 287.572 202.124 288.103L173.65 337.422C173.463 337.354 173.26 337.319 173.049 337.319C172.03 337.319 171.205 338.147 171.205 339.166C171.205 340.184 172.03 341.012 173.049 341.012C173.26 341.012 173.463 340.977 173.65 340.912L202.183 390.331C201.476 390.842 200.962 391.608 200.783 392.497H144.666C144.343 391.059 143.06 389.984 141.528 389.984C141.296 389.984 141.07 390.011 140.852 390.058L112.948 341.728C113.652 341.097 114.093 340.184 114.093 339.166C114.093 338.15 113.652 337.237 112.948 336.606L139.802 290.096C140.342 290.284 140.923 290.387 141.528 290.387C144.19 290.387 146.392 288.406 146.735 285.837ZM236.701 447.939C236.455 448.38 235.985 448.679 235.442 448.679C234.646 448.679 234.001 448.03 234.001 447.235C234.001 446.965 234.074 446.712 234.203 446.495C234.453 446.081 234.905 445.799 235.424 445.793C235.43 445.793 235.436 445.791 235.442 445.791C235.985 445.791 236.455 446.09 236.701 446.53C236.819 446.739 236.886 446.979 236.886 447.235C236.886 447.49 236.819 447.731 236.701 447.939ZM232.48 342.891L205.368 389.849C205.016 389.732 204.64 389.667 204.247 389.667C203.727 389.667 203.237 389.779 202.794 389.979L174.261 340.56C174.651 340.222 174.895 339.723 174.895 339.166C174.895 338.611 174.651 338.112 174.261 337.774L202.735 288.455C203.196 288.667 203.707 288.784 204.247 288.784C204.661 288.784 205.057 288.714 205.427 288.588L232.48 335.443C231.385 336.315 230.684 337.66 230.684 339.166C230.684 340.674 231.385 342.019 232.48 342.891ZM220.941 227.445C221.278 227.556 221.639 227.618 222.015 227.618C223.911 227.618 225.45 226.077 225.45 224.181C225.45 222.284 223.911 220.743 222.015 220.743C221.639 220.743 221.278 220.802 220.941 220.913L216.025 212.399L211.11 203.885H209.484L214.603 212.753L219.723 221.621C219.021 222.249 218.578 223.162 218.578 224.181C218.578 225.196 219.021 226.112 219.723 226.74L192.872 273.25C192.329 273.062 191.748 272.959 191.143 272.959C188.483 272.959 186.279 274.941 185.935 277.509H131.286C131.121 276.84 130.728 276.259 130.191 275.856L159.02 225.927C159.208 225.992 159.41 226.027 159.622 226.027C160.64 226.027 161.468 225.199 161.468 224.181C161.468 223.162 160.64 222.334 159.622 222.334C159.41 222.334 159.208 222.369 159.02 222.434L148.311 203.885H147.495L158.409 222.786C158.022 223.127 157.775 223.623 157.775 224.181C157.775 224.735 158.022 225.234 158.409 225.572L129.583 275.504C129.228 275.352 128.835 275.266 128.424 275.266C128.139 275.266 127.866 275.308 127.605 275.384L100.549 228.519C101.852 227.521 102.694 225.948 102.694 224.181C102.694 222.41 101.852 220.84 100.549 219.839L109.76 203.885H108.134L99.3274 219.134C98.6816 218.864 97.9712 218.715 97.2285 218.715C94.4516 218.715 92.1531 220.793 91.8096 223.476H37.5476C37.389 222.86 37.0221 222.325 36.529 221.95L46.9587 203.885H46.1455L35.9213 221.597C35.5867 221.456 35.2197 221.377 34.8352 221.377C34.5769 221.377 34.3274 221.412 34.0896 221.48L23.9299 203.885H22.3037L32.8684 222.184C32.3547 222.692 32.0348 223.4 32.0348 224.181C32.0348 224.961 32.3547 225.669 32.8684 226.177L4.82006 274.759C4.45019 274.632 4.05097 274.562 3.64 274.562C1.62334 274.562 -0.0117188 276.2 -0.0117188 278.214C-0.0117188 280.227 1.62334 281.865 3.64 281.865C4.05097 281.865 4.45019 281.795 4.82006 281.669L31.3596 327.638C29.9653 328.692 29.0611 330.365 29.0611 332.247C29.0611 335.435 31.6473 338.021 34.8352 338.021C37.7824 338.021 40.2188 335.807 40.5682 332.951H90.7881C91.1404 336.198 93.8909 338.725 97.2285 338.725C100.804 338.725 103.707 335.822 103.707 332.247C103.707 330.104 102.665 328.202 101.059 327.025L127.605 281.043C127.866 281.12 128.139 281.161 128.424 281.161C129.809 281.161 130.972 280.204 131.286 278.918H185.935C186.279 281.487 188.483 283.468 191.143 283.468C194.046 283.468 196.4 281.114 196.4 278.214C196.4 276.42 195.499 274.838 194.128 273.89L220.941 227.445ZM99.3274 229.227L126.384 276.088C125.905 276.549 125.582 277.169 125.5 277.861H68.0852C67.9179 276.881 67.0607 276.129 66.0333 276.129C65.7779 276.129 65.5343 276.176 65.3112 276.259L36.529 226.411C37.0221 226.036 37.389 225.501 37.5476 224.885H91.8096C92.1531 227.568 94.4516 229.646 97.2285 229.646C97.9712 229.646 98.6816 229.497 99.3274 229.227ZM99.8352 221.072C100.722 221.817 101.285 222.933 101.285 224.181C101.285 225.425 100.722 226.544 99.8352 227.286C99.4771 227.589 99.0661 227.829 98.617 227.994C98.1825 228.149 97.7158 228.237 97.2285 228.237C95.2295 228.237 93.568 226.787 93.2333 224.885C93.1922 224.656 93.1717 224.421 93.1717 224.181C93.1717 223.94 93.1922 223.705 93.2333 223.476C93.568 221.571 95.2295 220.124 97.2285 220.124C97.7158 220.124 98.1825 220.209 98.617 220.367C99.0661 220.532 99.4771 220.772 99.8352 221.072ZM6.03828 275.463L34.0896 226.881C34.3274 226.946 34.5769 226.981 34.8352 226.981C35.2197 226.981 35.5867 226.905 35.9213 226.764L64.7006 276.611C64.2427 276.995 63.9491 277.571 63.9491 278.214C63.9491 279.364 64.8826 280.298 66.0333 280.298C67.0607 280.298 67.9179 279.549 68.0852 278.566H125.5C125.582 279.259 125.905 279.878 126.384 280.339L99.8381 326.317C99.0397 325.965 98.1561 325.768 97.2285 325.768C93.8909 325.768 91.1404 328.299 90.7881 331.542H40.5682C40.2188 328.689 37.7824 326.473 34.8352 326.473C34.0338 326.473 33.2735 326.637 32.5808 326.931L6.03828 280.964C6.80443 280.295 7.28878 279.309 7.28878 278.214C7.28878 277.119 6.80443 276.132 6.03828 275.463ZM4.09206 280.409C3.94529 280.439 3.79558 280.456 3.64 280.456C2.40123 280.456 1.3973 279.452 1.3973 278.214C1.3973 276.978 2.40123 275.971 3.64 275.971C3.79558 275.971 3.94529 275.989 4.09206 276.018C4.57348 276.118 4.99912 276.37 5.31322 276.722C5.66547 277.119 5.87976 277.641 5.87976 278.214C5.87976 278.786 5.66547 279.309 5.31322 279.705C4.99912 280.057 4.57348 280.31 4.09206 280.409ZM100.349 328.252C101.535 329.182 102.298 330.626 102.298 332.247C102.298 335.047 100.026 337.316 97.2285 337.316C94.6688 337.316 92.5494 335.417 92.2059 332.951C92.1736 332.722 92.159 332.487 92.159 332.247C92.159 332.009 92.1736 331.774 92.2059 331.542C92.5494 329.079 94.6688 327.177 97.2285 327.177C97.9007 327.177 98.5407 327.309 99.1307 327.547C99.571 327.726 99.979 327.964 100.349 328.252Z" fill="#FFBC50"/>
</g>
<defs>
<linearGradient id="paint0_linear_27_132" x1="142.395" y1="-0.0846558" x2="142.395" y2="244.844" gradientUnits="userSpaceOnUse">
<stop offset="0.51" stop-color="#FB7A02"/>
<stop offset="1" stop-color="#FFBC50"/>
</linearGradient>
</defs>
</svg>
