<svg width="914" height="310" viewBox="0 0 914 310" fill="none" xmlns="http://www.w3.org/2000/svg">
<rect width="913.839" height="310" fill="white"/>
<path d="M862.895 287.264C857.391 287.264 850.735 285.6 846.255 283.168L850.223 270.368C853.423 272.16 856.751 273.312 858.927 273.312C862.511 273.312 865.327 272.16 866.735 269.728L869.039 264.864L841.519 198.048H860.847L878.255 244.512L894.767 198.048H913.839L886.703 267.552C881.711 280.48 873.263 287.264 862.895 287.264Z" fill="#0D629C"/>
<path d="M812.791 264.224V174.752H831.479V264.224H812.791Z" fill="#0D629C"/>
<path d="M796.607 247.84L801.087 260C797.247 263.456 791.231 265.76 785.855 265.76C774.207 265.76 766.015 257.44 766.015 245.536V213.152H756.927V198.048H766.015V179.872H783.935V198.048H798.271V213.152H783.935V242.592C783.935 246.944 786.751 250.016 790.207 250.016C792.767 250.016 795.327 249.12 796.607 247.84Z" fill="#0D629C"/>
<path d="M721.438 196.512C735.774 196.512 746.014 207.136 746.014 222.112V264.224H727.966V226.08C727.966 217.888 722.846 212.256 715.422 212.256C707.614 212.256 701.598 217.888 701.598 225.056L701.47 224.672V264.224H682.782V198.048H701.47V206.368C705.438 200.352 712.862 196.512 721.438 196.512Z" fill="#0D629C"/>
<path d="M638.523 249.248C643.771 249.248 650.171 246.816 653.755 243.36L665.659 255.52C659.771 261.664 648.379 265.76 638.651 265.76C618.939 265.76 603.579 251.296 603.579 230.944C603.579 210.976 618.299 196.512 637.627 196.512C658.363 196.512 670.523 212.256 670.523 237.216H622.779C624.955 244.384 630.715 249.248 638.523 249.248ZM638.395 213.024C631.355 213.024 625.467 217.12 623.035 223.776H652.603C650.811 217.248 645.947 213.024 638.395 213.024Z" fill="#0D629C"/>
<path d="M573.854 210.336C578.206 201.76 586.398 196.512 596.51 196.512V212.256C582.686 212.256 573.854 220.192 573.854 232.608V264.224H555.166V198.048H573.854V210.336Z" fill="#0D629C"/>
<path d="M510.523 249.248C515.771 249.248 522.171 246.816 525.755 243.36L537.659 255.52C531.771 261.664 520.379 265.76 510.651 265.76C490.939 265.76 475.579 251.296 475.579 230.944C475.579 210.976 490.299 196.512 509.627 196.512C530.363 196.512 542.523 212.256 542.523 237.216H494.779C496.955 244.384 502.715 249.248 510.523 249.248ZM510.395 213.024C503.355 213.024 497.467 217.12 495.035 223.776H524.603C522.811 217.248 517.947 213.024 510.395 213.024Z" fill="#0D629C"/>
<path d="M452.935 194.464V198.048H467.271V213.152H452.935V264.224H435.015V213.152H425.927V198.048H435.015V192.288C435.015 180.384 443.207 172.064 454.855 172.064C460.231 172.064 466.247 174.368 470.087 177.824L465.607 189.216C464.327 187.936 461.767 187.04 459.207 187.04C455.751 187.04 452.935 190.112 452.935 194.464Z" fill="#0D629C"/>
<path d="M404.435 194.464V198.048H418.771V213.152H404.435V264.224H386.515V213.152H377.427V198.048H386.515V192.288C386.515 180.384 394.707 172.064 406.355 172.064C411.731 172.064 417.747 174.368 421.587 177.824L417.107 189.216C415.827 187.936 413.267 187.04 410.707 187.04C407.251 187.04 404.435 190.112 404.435 194.464Z" fill="#0D629C"/>
<path d="M356.76 188.96C351 188.96 346.52 184.352 346.52 178.72C346.52 173.472 351 168.736 356.76 168.736C362.264 168.736 366.744 173.472 366.744 178.72C366.744 184.352 362.264 188.96 356.76 188.96ZM347.288 264.224V198.048H365.976V264.224H347.288Z" fill="#0D629C"/>
<path d="M251.321 264.224V176.288H282.809C312.377 176.288 333.369 194.464 333.369 220.192C333.369 245.92 312.377 264.224 282.809 264.224H251.321ZM270.137 247.072H285.241C302.009 247.072 313.913 235.936 313.913 220.192C313.913 204.576 302.009 193.44 285.241 193.44H270.137V247.072Z" fill="#0D629C"/>
<path d="M708.77 159.264C703.266 159.264 696.61 157.6 692.13 155.168L696.098 142.368C699.298 144.16 702.626 145.312 704.802 145.312C708.386 145.312 711.202 144.16 712.61 141.728L714.914 136.864L687.394 70.0479H706.722L724.13 116.512L740.642 70.0479H759.714L732.578 139.552C727.586 152.48 719.138 159.264 708.77 159.264Z" fill="#0D629C"/>
<path d="M677.482 119.84L681.962 132C678.122 135.456 672.106 137.76 666.73 137.76C655.082 137.76 646.89 129.44 646.89 117.536V85.1518H637.802V70.0478H646.89V51.8718H664.81V70.0478H679.146V85.1518H664.81V114.592C664.81 118.944 667.626 122.016 671.082 122.016C673.642 122.016 676.202 121.12 677.482 119.84Z" fill="#0D629C"/>
<path d="M617.135 60.9598C611.375 60.9598 606.895 56.3518 606.895 50.7198C606.895 45.4718 611.375 40.7358 617.135 40.7358C622.639 40.7358 627.119 45.4718 627.119 50.7198C627.119 56.3518 622.639 60.9598 617.135 60.9598ZM607.663 136.224V70.0478H626.351V136.224H607.663Z" fill="#0D629C"/>
<path d="M574.354 82.3358C578.706 73.7598 586.898 68.5118 597.01 68.5118V84.2558C583.186 84.2558 574.354 92.1918 574.354 104.608V136.224H555.666V70.0478H574.354V82.3358Z" fill="#0D629C"/>
<path d="M520.945 70.0479H539.633V136.224H520.945V127.904C516.977 133.92 509.553 137.76 500.977 137.76C486.641 137.76 476.401 127.136 476.401 112.16V70.0479H494.449V108.192C494.449 116.384 499.569 122.016 506.993 122.016C514.801 122.016 520.817 116.384 520.817 109.216L520.945 109.6V70.0479Z" fill="#0D629C"/>
<path d="M439.3 137.76C419.716 137.76 403.204 121.888 403.204 103.072C403.204 84.2558 419.844 68.5118 439.428 68.5118C450.18 68.5118 459.012 72.8638 465.412 79.7758L452.996 90.3998C449.668 86.6878 444.42 84.2558 439.3 84.2558C429.572 84.2558 421.38 92.8318 421.38 102.944C421.38 113.312 429.572 122.016 439.428 122.016C444.548 122.016 449.924 119.456 453.38 115.616L465.796 126.112C459.268 133.28 450.308 137.76 439.3 137.76Z" fill="#0D629C"/>
<path d="M362.273 121.248C367.521 121.248 373.921 118.816 377.505 115.36L389.409 127.52C383.521 133.664 372.129 137.76 362.401 137.76C342.689 137.76 327.329 123.296 327.329 102.944C327.329 82.9758 342.049 68.5118 361.377 68.5118C382.113 68.5118 394.273 84.2558 394.273 109.216H346.529C348.705 116.384 354.465 121.248 362.273 121.248ZM362.145 85.0238C355.105 85.0238 349.217 89.1198 346.785 95.7758H376.353C374.561 89.2478 369.697 85.0238 362.145 85.0238Z" fill="#0D629C"/>
<path d="M283.833 137.76C268.601 137.76 255.033 132.64 244.793 123.168L255.673 110.24C263.993 117.408 273.465 121.76 284.601 121.76C294.073 121.76 298.937 117.408 298.937 111.904C298.937 105.632 293.817 103.712 280.377 100.64C261.817 96.4158 248.633 91.1678 248.633 74.1438C248.633 57.8878 261.945 46.7518 281.145 46.7518C295.481 46.7518 306.617 51.2318 315.577 58.9118L305.721 72.4798C297.913 66.2078 289.081 62.7518 280.633 62.7518C272.569 62.7518 267.705 66.9758 267.705 72.2238C267.705 78.6238 272.953 80.6718 286.521 83.7438C305.465 87.9678 318.009 93.5998 318.009 109.856C318.009 126.624 305.337 137.76 283.833 137.76Z" fill="#0D629C"/>
<path d="M61.4477 93.2591V58.8014C61.4477 37.966 78.4698 21.0089 99.4 21.0089C120.324 21.0089 137.346 37.966 137.346 58.8014V93.2591L158.444 104.317V58.8014C158.444 26.3804 131.961 0 99.4 0C66.8392 0 40.3492 26.3804 40.3492 58.8014V104.317L61.4477 93.2591Z" fill="#3498DB"/>
<path fill-rule="evenodd" clip-rule="evenodd" d="M99.3945 283.547V309.952L198.683 252.701L198.791 226.235L99.3945 283.547ZM99.3945 80.8801V107.28L152.809 138.084L131.587 150.254L131.563 176.642L198.683 138.132L99.3945 80.8801Z" fill="#0D629C"/>
<path fill-rule="evenodd" clip-rule="evenodd" d="M99.3453 86.5298V81.243L0.00305176 137.25V251.819L99.3453 309.101L99.3992 309.071V282.666L99.3453 282.701C83.4316 273.527 38.8027 247.791 22.895 238.617V150.453L99.3453 106.369L99.3992 106.398L99.3453 86.5298Z" fill="#3498DB"/>
<path d="M99.5199 232.982V259.388L99.466 259.417L44.1781 227.539L67.0701 214.342L99.466 233.018L99.5199 232.982Z" fill="#FFBC50"/>
<path d="M99.466 131.908L99.5199 131.938V158.338L99.466 158.308C91.6259 162.826 78.5191 170.383 78.5191 170.383L99.5199 182.493V208.893L49.9056 180.285V160.487L99.466 131.908Z" fill="#FFBC50"/>
<path d="M98.9547 208.533V182.133L148.461 210.682V230.48L123.708 244.754L99.1999 259.625L98.9547 232.622L119.842 220.578L98.9547 208.533Z" fill="#FC7A00"/>
<path d="M99.2 158.488L99.2 131.75L131.75 150.35V176.7L99.2 158.488Z" fill="#FC7A00"/>
<path d="M99.3961 107.237V80.8025L0 137.195L22.9715 150.412L99.3961 107.237Z" fill="#0D629C"/>
</svg>
