<svg width="1440" height="184" viewBox="0 0 1440 184" fill="none" xmlns="http://www.w3.org/2000/svg">
<path fill-rule="evenodd" clip-rule="evenodd" d="M416.635 236.579C415.803 238.064 414.214 239.069 412.392 239.069C409.715 239.069 407.537 236.891 407.537 234.209C407.537 233.583 407.658 232.98 407.872 232.431L373.033 212.316V211.822L360.058 204.331C359.471 204.994 358.648 205.439 357.716 205.532V237.929H356.997V205.532C356.07 205.439 355.242 204.994 354.655 204.331L306.733 231.994C306.953 232.548 307.073 233.146 307.073 233.777C307.073 236.459 304.896 238.637 302.213 238.637C299.531 238.637 297.358 236.459 297.358 233.777C297.358 233.146 297.474 232.548 297.693 231.994L249.239 204.023C248.773 204.512 248.137 204.841 247.429 204.928V237.929H246.711V204.928C246.003 204.841 245.372 204.512 244.906 204.023L196.995 231.681C197.187 232.235 197.291 232.828 197.291 233.442C197.291 236.404 194.889 238.807 191.926 238.807C188.97 238.807 186.567 236.404 186.567 233.442C186.567 232.828 186.671 232.235 186.863 231.681L139.397 204.281C138.755 204.994 137.823 205.45 136.786 205.45C135.749 205.45 134.817 204.994 134.175 204.281L84.8544 232.757C84.8983 232.976 84.9257 233.206 84.9257 233.442C84.9257 235.006 83.8286 236.317 82.3639 236.646V237.929H80.9267V236.646C79.4566 236.317 78.3595 235.006 78.3595 233.442C78.3595 233.206 78.3869 232.976 78.4363 232.757L28.6715 204.023C28.1998 204.512 27.569 204.841 26.8613 204.928V237.929H26.1427V204.928C25.4351 204.841 24.7988 204.512 24.3325 204.023L-24.1212 231.994C-23.9018 232.548 -23.7811 233.146 -23.7811 233.777C-23.7811 236.459 -25.9589 238.637 -28.6413 238.637C-31.3237 238.637 -33.5015 236.459 -33.5015 233.777C-33.5015 233.146 -33.3808 232.548 -33.1614 231.994L-68 211.884V210.222L-32.4428 230.754C-31.5541 229.635 -30.1827 228.917 -28.6413 228.917C-27.1054 228.917 -25.734 229.635 -24.8398 230.754L23.6139 202.778C23.5371 202.509 23.4932 202.23 23.4932 201.939C23.4932 201.522 23.581 201.122 23.7346 200.759L-27.2206 171.341C-27.5661 171.736 -28.0763 171.988 -28.6413 171.988C-29.2118 171.988 -29.7165 171.736 -30.0621 171.341L-68 193.244V192.41L-30.4241 170.715C-30.4899 170.523 -30.5283 170.32 -30.5283 170.106C-30.5283 169.064 -29.6836 168.219 -28.6413 168.219C-27.6045 168.219 -26.7598 169.064 -26.7598 170.106C-26.7598 170.32 -26.7927 170.523 -26.8585 170.715L24.0966 200.134C24.508 199.591 25.1005 199.191 25.7807 199.021V143.249C23.1586 142.898 21.1399 140.649 21.1399 137.934C21.1399 137.319 21.2441 136.721 21.4361 136.173L-26.0302 108.767C-26.672 109.486 -27.6045 109.936 -28.6413 109.936C-29.6781 109.936 -30.6106 109.486 -31.2579 108.767L-68 129.985V128.323L-31.9765 107.522C-32.0862 107.182 -32.152 106.814 -32.152 106.43C-32.152 104.494 -30.5777 102.925 -28.6413 102.925C-26.7049 102.925 -25.136 104.494 -25.136 106.43C-25.136 106.814 -25.1964 107.182 -25.3116 107.522L22.0889 134.889C23.0544 133.49 24.6726 132.569 26.4993 132.569C28.3314 132.569 29.9442 133.49 30.9151 134.889L78.7545 107.27C78.376 105.969 78.919 104.532 80.1423 103.825C80.3891 103.682 80.6579 103.578 80.9267 103.512V48.6072C79.1549 48.3878 77.4983 47.3675 76.5383 45.7054C74.9146 42.8858 75.88 39.2818 78.6996 37.6526C81.3052 36.1496 84.5856 36.8627 86.3519 39.2105L131.361 13.2201C130.214 10.5212 131.235 7.3231 133.84 5.81459C136.654 4.19087 140.264 5.15633 141.887 7.97589C142.847 9.638 142.908 11.5799 142.211 13.2201L189.76 40.6752C189.952 40.4722 190.171 40.2966 190.423 40.154C191.861 39.3257 193.704 39.8139 194.532 41.2511C195.36 42.6883 194.872 44.5315 193.435 45.3598C193.183 45.5079 192.914 45.6121 192.645 45.678V103.666C193.364 103.852 194.005 104.313 194.406 104.999C194.801 105.69 194.883 106.48 194.686 107.193L242.657 134.889C243.628 133.49 245.24 132.569 247.073 132.569C248.899 132.569 250.517 133.49 251.488 134.889L298.883 107.522C298.768 107.182 298.708 106.814 298.708 106.43C298.708 104.494 300.277 102.925 302.213 102.925C304.15 102.925 305.724 104.494 305.724 106.43C305.724 106.814 305.658 107.182 305.548 107.522L354.754 135.937C355.357 135.158 356.3 134.653 357.359 134.653C358.418 134.653 359.356 135.158 359.959 135.937L408.972 107.637C408.916 107.388 408.887 107.129 408.887 106.862C408.887 106.674 408.901 106.49 408.93 106.31C408.921 105.738 409.062 105.157 409.368 104.626C410.278 103.057 412.286 102.519 413.855 103.424C414.316 103.69 414.688 104.053 414.96 104.472C415.544 105.098 415.903 105.938 415.903 106.862C415.903 107.091 415.881 107.314 415.84 107.53L463.382 134.976C464.368 133.774 465.861 133.006 467.538 133.006C469.248 133.006 470.776 133.809 471.76 135.059L506.999 114.713V115.088L519.793 107.701C519.415 106.401 519.952 104.964 521.175 104.256C521.428 104.114 521.691 104.009 521.96 103.944V49.0389C520.188 48.8195 518.537 47.7992 517.577 46.137C515.953 43.3175 516.919 39.7135 519.733 38.0843C522.338 36.5812 525.624 37.2944 527.385 39.6422L572.399 13.6572C571.247 10.9528 572.273 7.75478 574.879 6.25174C577.693 4.62253 581.302 5.58798 582.926 8.40755C583.886 10.0697 583.941 12.0116 583.244 13.6517L630.798 41.1068C630.99 40.9093 631.21 40.7283 631.462 40.5857C632.899 39.7574 634.742 40.2511 635.571 41.6883C636.399 43.1255 635.905 44.9631 634.468 45.7915C634.216 45.9396 633.953 46.0438 633.684 46.1096V104.097C634.402 104.284 635.044 104.744 635.445 105.436C635.84 106.121 635.916 106.911 635.719 107.624L683.695 135.321C684.661 133.922 686.279 133.006 688.111 133.006C689.938 133.006 691.556 133.922 692.522 135.321L739.917 107.959C739.807 107.613 739.747 107.246 739.747 106.862C739.747 104.926 741.315 103.357 743.252 103.357C745.188 103.357 746.757 104.926 746.757 106.862C746.757 107.246 746.697 107.613 746.582 107.959L795.792 136.369C796.396 135.59 797.334 135.085 798.392 135.085C799.451 135.085 800.395 135.59 800.998 136.369L850.214 107.948C849.841 107.043 849.88 105.973 850.406 105.057C851.311 103.488 853.319 102.951 854.888 103.856C856.243 104.635 856.83 106.242 856.38 107.674L905.98 136.308C907.088 135.052 908.97 134.701 910.484 135.573C910.829 135.776 911.131 136.023 911.383 136.308L933.177 123.725V123.297L969.2 102.495C969.091 102.155 969.025 101.788 969.025 101.404C969.025 99.4675 970.599 97.8986 972.535 97.8986C974.472 97.8986 976.041 99.4675 976.041 101.404C976.041 101.788 975.98 102.155 975.865 102.495L1023.27 129.863C1024.23 128.464 1025.85 127.542 1027.68 127.542C1029.51 127.542 1031.12 128.464 1032.09 129.863L1079.93 102.243C1079.55 100.943 1080.1 99.5059 1081.32 98.7982C1081.57 98.6556 1081.83 98.5514 1082.1 98.4856V43.5809C1080.33 43.3615 1078.68 42.3411 1077.72 40.679C1076.09 37.8595 1077.06 34.2555 1079.88 32.6263C1082.48 31.1232 1085.76 31.8363 1087.53 34.1841L1132.54 8.1937C1131.39 5.49481 1132.41 2.29674 1135.02 0.788223C1137.83 -0.835495 1141.44 0.129959 1143.06 2.94952C1144.02 4.61163 1144.08 6.55351 1143.39 8.1937L1190.94 35.6488C1191.13 35.4458 1191.35 35.2703 1191.6 35.1277C1193.04 34.2993 1194.88 34.7876 1195.71 36.2248C1196.54 37.662 1196.05 39.5051 1194.61 40.3334C1194.36 40.4815 1194.09 40.5858 1193.82 40.6516V98.6392C1194.54 98.8257 1195.18 99.2865 1195.58 99.9722C1195.98 100.663 1196.06 101.453 1195.86 102.166L1243.83 129.863C1244.8 128.464 1246.42 127.542 1248.25 127.542C1250.08 127.542 1251.69 128.464 1252.67 129.863L1300.06 102.495C1299.94 102.155 1299.88 101.788 1299.88 101.404C1299.88 99.4675 1301.45 97.8986 1303.39 97.8986C1305.33 97.8986 1306.9 99.4675 1306.9 101.404C1306.9 101.788 1306.83 102.155 1306.73 102.495L1355.93 130.911C1356.53 130.132 1357.48 129.627 1358.54 129.627C1359.59 129.627 1360.53 130.132 1361.14 130.911L1410.36 102.49C1409.98 101.579 1410.02 100.515 1410.54 99.5991C1411.45 98.0303 1413.46 97.4927 1415.03 98.3978C1416.38 99.1767 1416.97 100.784 1416.52 102.216L1466.12 130.85C1467.23 129.589 1469.11 129.243 1470.62 130.115C1470.97 130.318 1471.27 130.565 1471.52 130.85L1508.18 109.687V111.349L1472.24 132.095C1472.52 132.935 1472.49 133.873 1472.11 134.723L1508.18 155.552V156.38L1471.75 135.348C1471.2 136.105 1470.4 136.599 1469.54 136.775V192.107C1470.12 192.195 1470.7 192.392 1471.25 192.705C1473.36 193.923 1474.21 196.49 1473.34 198.695L1508.18 218.805V220.467L1472.62 199.941C1471.15 201.795 1468.5 202.338 1466.39 201.12C1465.84 200.807 1465.38 200.401 1465.02 199.941L1415.83 228.339C1415.85 228.471 1415.87 228.608 1415.87 228.751C1415.87 229.019 1415.82 229.283 1415.73 229.519L1421.59 232.903H1420.15L1415.37 230.144C1415.11 230.451 1414.78 230.687 1414.4 230.819V232.903H1412.96V230.819C1412.1 230.522 1411.49 229.71 1411.49 228.751C1411.49 228.608 1411.5 228.471 1411.53 228.339L1361.23 199.304C1360.65 199.968 1359.83 200.412 1358.89 200.506V232.903H1358.17V200.506C1357.25 200.412 1356.42 199.968 1355.83 199.304L1307.91 226.968C1308.13 227.522 1308.25 228.12 1308.25 228.751C1308.25 231.433 1306.07 233.611 1303.39 233.611C1300.71 233.611 1298.54 231.433 1298.54 228.751C1298.54 228.12 1298.65 227.522 1298.87 226.968L1250.42 198.997C1249.95 199.485 1249.31 199.814 1248.61 199.902V232.903H1247.89V199.902C1247.18 199.814 1246.55 199.485 1246.08 198.997L1198.17 226.655C1198.36 227.209 1198.47 227.802 1198.47 228.416C1198.47 231.378 1196.07 233.781 1193.1 233.781C1190.15 233.781 1187.74 231.378 1187.74 228.416C1187.74 227.802 1187.85 227.209 1188.04 226.655L1140.57 199.255C1139.93 199.968 1139 200.423 1137.96 200.423C1136.93 200.423 1135.99 199.968 1135.35 199.255L1086.03 227.73C1086.08 227.95 1086.1 228.18 1086.1 228.416C1086.1 229.979 1085.01 231.29 1083.54 231.619V232.903H1082.1V231.619C1080.63 231.29 1079.54 229.979 1079.54 228.416C1079.54 228.18 1079.56 227.95 1079.61 227.73L1029.85 198.997C1029.38 199.485 1028.75 199.814 1028.04 199.902V232.903H1027.32V199.902C1026.61 199.814 1025.98 199.485 1025.51 198.997L977.056 226.968C977.275 227.522 977.396 228.12 977.396 228.751C977.396 231.433 975.218 233.611 972.535 233.611C969.853 233.611 967.675 231.433 967.675 228.751C967.675 228.12 967.796 227.522 968.015 226.968L933.177 206.858V205.196L968.734 225.728C969.623 224.609 970.994 223.89 972.535 223.89C974.071 223.89 975.443 224.609 976.337 225.728L1024.79 197.752C1024.71 197.483 1024.67 197.203 1024.67 196.912C1024.67 196.496 1024.76 196.095 1024.91 195.733L973.956 166.314C973.611 166.709 973.1 166.961 972.535 166.961C971.965 166.961 971.46 166.709 971.115 166.314L933.177 188.218V187.384L970.753 165.689C970.687 165.497 970.648 165.294 970.648 165.08C970.648 164.038 971.493 163.193 972.535 163.193C973.572 163.193 974.417 164.038 974.417 165.08C974.417 165.294 974.384 165.497 974.318 165.689L1025.27 195.108C1025.68 194.565 1026.28 194.164 1026.96 193.994V138.223C1024.34 137.872 1022.32 135.623 1022.32 132.907C1022.32 132.293 1022.42 131.695 1022.61 131.146L975.147 103.741C974.505 104.459 973.572 104.909 972.535 104.909C971.499 104.909 970.566 104.459 969.919 103.741L948.038 116.377V116.807L912.102 137.553C912.382 138.393 912.354 139.331 911.97 140.181L948.038 161.01V161.838L911.608 140.806C911.065 141.563 910.264 142.057 909.398 142.233V197.565C909.985 197.653 910.566 197.85 911.109 198.163C913.221 199.386 914.071 201.954 913.199 204.153L948.038 224.269V225.925L912.48 205.399C911.01 207.253 908.361 207.801 906.249 206.578C905.706 206.265 905.245 205.865 904.878 205.399L855.689 233.797C855.716 233.929 855.727 234.071 855.727 234.209C855.727 234.483 855.678 234.741 855.59 234.982L861.454 238.367H860.017L855.228 235.602C854.976 235.909 854.641 236.145 854.257 236.282V238.367H852.82V236.282C851.959 235.98 851.344 235.169 851.344 234.209C851.344 234.071 851.361 233.929 851.383 233.797L801.097 204.762C800.51 205.426 799.681 205.87 798.754 205.964V238.367H798.036V205.964C797.103 205.87 796.28 205.426 795.693 204.762L747.772 232.431C747.991 232.98 748.112 233.583 748.112 234.209C748.112 236.891 745.934 239.069 743.252 239.069C740.569 239.069 738.392 236.891 738.392 234.209C738.392 233.583 738.512 232.98 738.732 232.431L690.278 204.455C689.806 204.943 689.175 205.272 688.468 205.36V238.367H687.749V205.36C687.042 205.272 686.411 204.943 685.939 204.455L638.034 232.113C638.226 232.667 638.33 233.26 638.33 233.874C638.33 236.836 635.927 239.239 632.965 239.239C630.003 239.239 627.6 236.836 627.6 233.874C627.6 233.26 627.705 232.667 627.897 232.113L580.436 204.713C579.794 205.426 578.861 205.881 577.825 205.881C576.788 205.881 575.85 205.426 575.208 204.713L525.888 233.188C525.937 233.408 525.959 233.638 525.959 233.874C525.959 235.443 524.867 236.748 523.397 237.077V238.367H521.96V237.077C520.495 236.748 519.398 235.443 519.398 233.874C519.398 233.638 519.426 233.408 519.469 233.188L471.161 205.296C470.292 206.205 469.114 206.727 467.895 206.791V238.367H467.176V206.776C466.505 206.711 465.837 206.505 465.216 206.146C464.769 205.891 464.38 205.575 464.052 205.217L416.917 232.431C417.131 232.98 417.252 233.583 417.252 234.209C417.252 234.812 417.142 235.39 416.94 235.924L420.415 237.929H418.978L416.635 236.579ZM468.359 143.666V197.134C468.946 197.221 469.527 197.419 470.07 197.731C472.182 198.949 473.033 201.516 472.166 203.722L506.999 223.832V224.326L520.078 231.877C520.676 231.098 521.62 230.594 522.679 230.594C523.737 230.594 524.681 231.098 525.284 231.877L574.489 203.468C574.374 203.122 574.314 202.754 574.314 202.371C574.314 201.86 574.424 201.378 574.621 200.939L524.105 171.772C523.968 171.926 523.809 172.063 523.622 172.167C522.722 172.688 521.57 172.381 521.049 171.476C520.528 170.576 520.835 169.424 521.741 168.903C521.922 168.799 522.119 168.728 522.322 168.684V109.846C521.642 109.764 521 109.451 520.512 108.946L472.607 136.604C472.799 137.158 472.903 137.751 472.903 138.365C472.903 139.164 472.728 139.923 472.413 140.605L506.999 160.578V161.406L472.067 141.239C471.255 142.516 469.917 143.427 468.359 143.666ZM462.708 140.7C462.365 139.994 462.173 139.202 462.173 138.365C462.173 137.751 462.277 137.158 462.469 136.604L415.009 109.204C414.367 109.917 413.434 110.373 412.392 110.373C411.355 110.373 410.423 109.917 409.781 109.204L373.033 130.417V130.045L360.568 137.242C360.612 137.467 360.64 137.698 360.64 137.934C360.64 139.497 359.542 140.808 358.078 141.137V198.406C359.723 198.741 360.963 200.194 360.963 201.939C360.963 202.339 360.897 202.723 360.777 203.085L408.881 230.858C409.711 229.985 410.863 229.42 412.143 229.355V172.403C411.678 172.341 411.265 172.108 410.971 171.772L373.033 193.676V192.848L410.615 171.152C410.549 170.96 410.51 170.752 410.51 170.538C410.51 170.303 410.553 170.079 410.631 169.872C410.662 169.629 410.74 169.388 410.871 169.163C411.386 168.263 412.544 167.95 413.443 168.472C413.63 168.581 413.789 168.713 413.921 168.867L462.708 140.7ZM466.819 197.15V143.681C465.254 143.471 463.902 142.585 463.066 141.328L414.283 169.492C414.421 169.895 414.421 170.349 414.264 170.768C414.247 170.901 414.217 171.03 414.175 171.152L463.398 199.571C463.409 199.55 463.421 199.53 463.433 199.509C464.188 198.213 465.449 197.388 466.819 197.15ZM415.981 230.937L463.12 203.722C462.69 202.621 462.66 201.374 463.095 200.222L413.818 171.772C413.571 172.055 413.239 172.264 412.862 172.361V229.371C414.096 229.489 415.193 230.07 415.981 230.937ZM628.549 230.829L581.154 203.468C581.27 203.122 581.33 202.754 581.33 202.371C581.33 201.86 581.22 201.378 581.023 200.939L628.034 173.802C629.74 176.391 633.201 177.23 635.922 175.661C638.752 174.027 639.723 170.406 638.089 167.576C637.057 165.793 635.236 164.751 633.327 164.63V109.698C633.689 109.654 634.057 109.533 634.397 109.341C634.622 109.21 634.825 109.051 635.006 108.87L683.043 136.604C682.851 137.158 682.746 137.751 682.746 138.365C682.746 141.081 684.771 143.33 687.387 143.681V199.452C686.076 199.776 685.1 200.961 685.1 202.371C685.1 202.661 685.144 202.946 685.22 203.21L637.381 230.829C636.41 229.431 634.797 228.515 632.965 228.515C631.138 228.515 629.52 229.431 628.549 230.829ZM739.45 231.186L690.997 203.21C691.073 202.946 691.117 202.661 691.117 202.371C691.117 201.954 691.03 201.553 690.876 201.191L741.831 171.772C742.177 172.167 742.681 172.419 743.252 172.419C743.817 172.419 744.327 172.167 744.673 171.772L795.107 200.889C794.904 201.345 794.788 201.844 794.788 202.371C794.788 202.771 794.854 203.16 794.975 203.517L747.053 231.186C746.165 230.067 744.788 229.354 743.252 229.354C741.71 229.354 740.339 230.067 739.45 231.186ZM852.107 232.552L801.815 203.517C801.936 203.16 802.002 202.771 802.002 202.371C802.002 200.626 800.762 199.172 799.111 198.838V141.569C800.581 141.24 801.673 139.929 801.673 138.365C801.673 138.129 801.651 137.899 801.601 137.68L851.048 109.133C851.218 109.281 851.405 109.418 851.608 109.539C852.962 110.318 854.647 110.027 855.661 108.919L905.256 137.553C904.965 138.431 905.026 139.369 905.393 140.181L854.959 169.298C854.828 169.145 854.663 169.013 854.477 168.903C853.577 168.382 852.425 168.695 851.904 169.594C851.383 170.494 851.695 171.646 852.595 172.167C852.781 172.277 852.979 172.348 853.176 172.387V232.047C852.77 232.113 852.403 232.294 852.107 232.552ZM904.159 204.153L854.97 232.552C854.674 232.294 854.301 232.113 853.895 232.047V172.387C854.411 172.282 854.882 171.97 855.168 171.476C855.453 170.988 855.491 170.423 855.316 169.924L905.75 140.806C906.04 141.207 906.419 141.558 906.874 141.821C907.225 142.024 907.587 142.161 907.96 142.233V197.571C906.551 197.779 905.24 198.613 904.472 199.946C903.704 201.273 903.638 202.82 904.159 204.153ZM745.863 109.204L795.183 137.68C795.139 137.899 795.112 138.129 795.112 138.365C795.112 139.929 796.209 141.24 797.674 141.569V198.838C796.769 199.019 795.99 199.545 795.469 200.27L745.035 171.152C745.1 170.96 745.133 170.752 745.133 170.538C745.133 169.496 744.289 168.651 743.252 168.651C742.21 168.651 741.365 169.496 741.365 170.538C741.365 170.752 741.403 170.96 741.469 171.152L690.514 200.571C690.102 200.023 689.51 199.622 688.83 199.452V143.681C691.446 143.33 693.471 141.081 693.471 138.365C693.471 137.751 693.366 137.158 693.174 136.604L740.641 109.204C741.283 109.917 742.215 110.373 743.252 110.373C744.289 110.373 745.221 109.917 745.863 109.204ZM632.247 46.1096V104.097C632.005 104.158 631.764 104.256 631.533 104.388C631.199 104.585 630.914 104.838 630.689 105.134L579.816 75.7644C580.03 75.1884 579.991 74.5302 579.662 73.9651C579.075 72.9448 577.775 72.5993 576.76 73.1862C575.85 73.7128 575.477 74.8099 575.828 75.7644L525.087 105.057C524.659 104.487 524.055 104.108 523.397 103.944V49.0389C524.16 48.9456 524.917 48.6988 525.624 48.2929C528.23 46.7898 529.256 43.5863 528.104 40.8874L573.118 14.9024C574.879 17.2447 578.165 17.9579 580.77 16.4548C581.478 16.0489 582.065 15.5168 582.531 14.9024L630.08 42.352C629.86 43.109 629.937 43.9538 630.36 44.6944C630.787 45.4294 631.479 45.9176 632.247 46.1096ZM523.041 168.689V109.846C523.43 109.802 523.82 109.676 524.182 109.468C524.434 109.319 524.659 109.144 524.851 108.946L573.305 136.923C572.783 138.25 572.844 139.797 573.617 141.13C574.385 142.463 575.691 143.291 577.106 143.505V198.942C576.234 199.123 575.482 199.622 574.983 200.319L524.461 171.152C524.631 170.653 524.593 170.083 524.313 169.594C524.028 169.101 523.556 168.788 523.041 168.689ZM627.672 173.176L580.666 200.319C580.161 199.622 579.41 199.123 578.543 198.942V143.505C579.13 143.417 579.706 143.22 580.255 142.907C582.361 141.69 583.211 139.122 582.345 136.917L630.93 108.87C631.385 109.33 631.978 109.621 632.609 109.698V164.63C631.72 164.685 630.831 164.937 630.008 165.414C627.282 166.983 626.284 170.401 627.672 173.176ZM579.459 76.3843L630.332 105.754C630.085 106.341 630.036 106.999 630.211 107.624L581.626 135.672C580.156 133.823 577.506 133.275 575.395 134.493C574.851 134.805 574.391 135.211 574.023 135.672L525.569 107.701C525.756 107.048 525.729 106.335 525.443 105.682L576.19 76.3843C576.837 77.1687 577.978 77.3936 578.883 76.867C579.108 76.7354 579.3 76.5763 579.459 76.3843ZM1080.22 226.419L1030.57 197.752C1030.64 197.483 1030.68 197.203 1030.68 196.912C1030.68 195.503 1029.71 194.318 1028.39 193.994V138.223C1031.02 137.872 1033.04 135.623 1033.04 132.907C1033.04 132.293 1032.94 131.695 1032.74 131.146L1080.65 103.488C1081.14 103.993 1081.78 104.306 1082.46 104.388V163.226C1082.26 163.264 1082.07 163.336 1081.88 163.445C1080.98 163.966 1080.67 165.118 1081.19 166.018C1081.71 166.918 1082.86 167.23 1083.76 166.709C1083.95 166.599 1084.11 166.468 1084.24 166.314L1134.76 195.481C1134.57 195.92 1134.46 196.402 1134.46 196.912C1134.46 197.296 1134.52 197.664 1134.63 198.01L1085.42 226.419C1084.82 225.64 1083.88 225.136 1082.82 225.136C1081.76 225.136 1080.82 225.64 1080.22 226.419ZM1188.69 225.371L1141.3 198.01C1141.41 197.664 1141.47 197.296 1141.47 196.912C1141.47 196.402 1141.36 195.92 1141.17 195.481L1188.17 168.344C1189.88 170.933 1193.34 171.772 1196.07 170.203C1198.89 168.569 1199.86 164.948 1198.23 162.118C1197.2 160.335 1195.38 159.293 1193.47 159.172V104.24C1193.83 104.196 1194.19 104.075 1194.53 103.878C1194.77 103.746 1194.97 103.587 1195.14 103.412L1243.18 131.146C1242.99 131.695 1242.88 132.293 1242.88 132.907C1242.88 135.623 1244.91 137.872 1247.53 138.223V193.994C1246.21 194.318 1245.24 195.503 1245.24 196.912C1245.24 197.203 1245.28 197.483 1245.36 197.752L1197.52 225.371C1196.55 223.973 1194.94 223.057 1193.1 223.057C1191.28 223.057 1189.66 223.973 1188.69 225.371ZM1299.59 225.728L1251.13 197.752C1251.21 197.483 1251.26 197.203 1251.26 196.912C1251.26 196.496 1251.17 196.095 1251.01 195.733L1301.97 166.314C1302.31 166.709 1302.82 166.961 1303.39 166.961C1303.96 166.961 1304.47 166.709 1304.81 166.314L1355.24 195.431C1355.04 195.881 1354.93 196.386 1354.93 196.912C1354.93 197.313 1354.99 197.697 1355.11 198.059L1307.19 225.728C1306.3 224.609 1304.93 223.89 1303.39 223.89C1301.85 223.89 1300.48 224.609 1299.59 225.728ZM1412.24 227.094L1361.95 198.059C1362.07 197.697 1362.14 197.313 1362.14 196.912C1362.14 195.168 1360.9 193.714 1359.25 193.38V136.111C1360.72 135.782 1361.82 134.471 1361.82 132.907C1361.82 132.671 1361.79 132.441 1361.74 132.216L1411.19 103.669C1411.36 103.823 1411.54 103.96 1411.75 104.081C1413.1 104.86 1414.78 104.564 1415.8 103.461L1465.4 132.095C1465.1 132.973 1465.16 133.911 1465.53 134.723L1415.1 163.84C1414.97 163.687 1414.81 163.555 1414.62 163.445C1413.72 162.924 1412.56 163.237 1412.05 164.136C1411.53 165.036 1411.83 166.188 1412.73 166.709C1412.92 166.819 1413.12 166.89 1413.32 166.929V226.589C1412.91 226.655 1412.54 226.836 1412.24 227.094ZM1464.3 198.695L1415.11 227.094C1414.81 226.836 1414.44 226.655 1414.04 226.589V166.929C1414.55 166.824 1415.03 166.512 1415.31 166.018C1415.59 165.53 1415.63 164.959 1415.46 164.466L1465.89 135.348C1466.18 135.749 1466.56 136.1 1467.02 136.363C1467.36 136.566 1467.73 136.698 1468.1 136.775V192.107C1466.69 192.321 1465.38 193.155 1464.61 194.482C1463.84 195.815 1463.78 197.362 1464.3 198.695ZM1306.01 103.741L1355.33 132.216C1355.28 132.441 1355.26 132.671 1355.26 132.907C1355.26 134.471 1356.35 135.782 1357.82 136.111V193.38C1356.91 193.561 1356.13 194.087 1355.61 194.806L1305.17 165.689C1305.24 165.497 1305.28 165.294 1305.28 165.08C1305.28 164.038 1304.43 163.193 1303.39 163.193C1302.35 163.193 1301.51 164.038 1301.51 165.08C1301.51 165.294 1301.54 165.497 1301.61 165.689L1250.65 195.108C1250.24 194.565 1249.65 194.164 1248.97 193.994V138.223C1251.59 137.872 1253.61 135.623 1253.61 132.907C1253.61 132.293 1253.5 131.695 1253.31 131.146L1300.78 103.741C1301.42 104.459 1302.35 104.909 1303.39 104.909C1304.43 104.909 1305.36 104.459 1306.01 103.741ZM1192.38 40.6516V98.6337C1192.14 98.6995 1191.9 98.7982 1191.68 98.9299C1191.34 99.1219 1191.05 99.3797 1190.83 99.6759L1139.96 70.3009C1140.17 69.7304 1140.13 69.0721 1139.81 68.5016C1139.22 67.4868 1137.92 67.1412 1136.9 67.7282C1135.99 68.2493 1135.61 69.3519 1135.97 70.3064L1085.22 99.5991C1084.8 99.0286 1084.2 98.6447 1083.54 98.4856V43.5809C1084.3 43.4876 1085.06 43.2408 1085.77 42.8348C1088.37 41.3318 1089.39 38.1283 1088.25 35.4294L1133.26 9.4389C1135.02 11.7867 1138.3 12.4998 1140.91 10.9968C1141.62 10.5909 1142.21 10.0533 1142.67 9.4389L1190.22 36.894C1190 37.651 1190.08 38.4958 1190.5 39.2363C1190.93 39.9714 1191.62 40.4596 1192.38 40.6516ZM1083.18 163.226V104.388C1083.57 104.344 1083.96 104.218 1084.33 104.01C1084.58 103.861 1084.8 103.686 1084.99 103.488L1133.44 131.459C1132.92 132.792 1132.99 134.339 1133.76 135.672C1134.52 136.999 1135.83 137.833 1137.24 138.047V193.479C1136.38 193.66 1135.63 194.164 1135.12 194.861L1084.6 165.689C1084.77 165.195 1084.74 164.625 1084.45 164.136C1084.17 163.643 1083.69 163.33 1083.18 163.226ZM1187.81 167.718L1140.8 194.861C1140.3 194.164 1139.55 193.66 1138.68 193.479V138.047C1139.27 137.959 1139.85 137.762 1140.39 137.449C1142.5 136.232 1143.35 133.664 1142.48 131.459L1191.07 103.412C1191.52 103.872 1192.12 104.158 1192.75 104.24V159.172C1191.86 159.227 1190.97 159.479 1190.15 159.956C1187.43 161.525 1186.42 164.943 1187.81 167.718ZM1139.6 70.9263L1190.47 100.296C1190.22 100.877 1190.17 101.541 1190.35 102.166L1141.76 130.214C1140.29 128.36 1137.64 127.817 1135.53 129.035C1134.99 129.347 1134.53 129.753 1134.16 130.214L1085.71 102.243C1085.89 101.59 1085.87 100.877 1085.59 100.224L1136.33 70.9263C1136.98 71.7107 1138.12 71.9356 1139.03 71.409C1139.25 71.2773 1139.44 71.1128 1139.6 70.9263ZM29.3902 202.778L79.0397 231.446C79.6431 230.667 80.5866 230.162 81.6453 230.162C82.704 230.162 83.6421 230.667 84.2455 231.446L133.451 203.036C133.341 202.69 133.281 202.323 133.281 201.939C133.281 201.429 133.39 200.946 133.582 200.507L83.0661 171.341C82.9344 171.494 82.7699 171.626 82.5834 171.736C81.6837 172.257 80.5318 171.944 80.0107 171.044C79.4895 170.145 79.8022 168.993 80.7018 168.472C80.8883 168.362 81.0858 168.291 81.2833 168.252V109.414C80.6031 109.332 79.9613 109.019 79.4731 108.515L31.5679 136.173C31.7599 136.721 31.8641 137.319 31.8641 137.934C31.8641 140.649 29.84 142.898 27.2179 143.249V199.021C28.5344 199.344 29.5053 200.529 29.5053 201.939C29.5053 202.23 29.4669 202.509 29.3902 202.778ZM140.121 203.036L187.516 230.398C188.482 228.999 190.1 228.083 191.926 228.083C193.759 228.083 195.377 228.999 196.342 230.398L244.182 202.778C244.105 202.509 244.066 202.23 244.066 201.939C244.066 200.529 245.037 199.344 246.354 199.021V143.249C243.732 142.898 241.708 140.649 241.708 137.934C241.708 137.319 241.812 136.721 242.004 136.173L193.967 108.438C193.792 108.613 193.589 108.773 193.358 108.904C193.018 109.102 192.656 109.222 192.289 109.266V164.198C194.203 164.319 196.024 165.361 197.05 167.144C198.685 169.975 197.714 173.595 194.889 175.23C192.162 176.799 188.706 175.959 186.995 173.37L139.989 200.507C140.181 200.946 140.291 201.429 140.291 201.939C140.291 202.323 140.231 202.69 140.121 203.036ZM249.958 202.778L298.412 230.754C299.306 229.635 300.677 228.917 302.213 228.917C303.755 228.917 305.126 229.635 306.015 230.754L353.936 203.085C353.816 202.723 353.75 202.339 353.75 201.939C353.75 201.412 353.865 200.908 354.068 200.458L303.634 171.341C303.288 171.736 302.784 171.988 302.213 171.988C301.648 171.988 301.138 171.736 300.792 171.341L249.837 200.759C249.991 201.122 250.079 201.522 250.079 201.939C250.079 202.23 250.035 202.509 249.958 202.778ZM354.15 137.242L304.83 108.767C304.182 109.486 303.25 109.936 302.213 109.936C301.176 109.936 300.244 109.486 299.602 108.767L252.136 136.173C252.328 136.721 252.437 137.319 252.437 137.934C252.437 140.649 250.413 142.898 247.791 143.249V199.021C248.477 199.191 249.064 199.591 249.475 200.134L300.43 170.715C300.365 170.523 300.332 170.32 300.332 170.106C300.332 169.064 301.176 168.219 302.213 168.219C303.255 168.219 304.1 169.064 304.1 170.106C304.1 170.32 304.062 170.523 303.996 170.715L354.43 199.832C354.951 199.114 355.735 198.587 356.641 198.406V141.137C355.17 140.808 354.079 139.497 354.079 137.934C354.079 137.698 354.101 137.467 354.15 137.242ZM191.208 103.66V45.678C190.445 45.486 189.749 44.9978 189.326 44.2627C188.898 43.5221 188.822 42.6774 189.041 41.9204L141.492 14.4653C141.032 15.0797 140.439 15.6172 139.732 16.0232C137.126 17.5262 133.846 16.8131 132.079 14.4653L87.0705 40.4557C88.217 43.1546 87.1967 46.3582 84.5911 47.8612C83.8834 48.2671 83.1264 48.514 82.3639 48.6072V103.512C83.0222 103.671 83.6201 104.055 84.048 104.626L134.789 75.3327C134.438 74.3783 134.811 73.2757 135.722 72.7545C136.742 72.1676 138.042 72.5132 138.629 73.528C138.953 74.0985 138.991 74.7568 138.783 75.3273L189.65 104.702C189.875 104.406 190.16 104.148 190.5 103.956C190.725 103.825 190.967 103.726 191.208 103.66ZM82.0019 109.414V168.252C82.5175 168.356 82.9893 168.669 83.2745 169.163C83.5598 169.651 83.5982 170.222 83.4227 170.715L133.944 199.887C134.449 199.191 135.201 198.686 136.067 198.505V143.074C134.652 142.86 133.346 142.026 132.579 140.698C131.811 139.365 131.745 137.818 132.266 136.485L83.8121 108.515C83.6201 108.712 83.4007 108.888 83.1484 109.036C82.7863 109.244 82.3969 109.37 82.0019 109.414ZM139.627 199.887L186.633 172.745C185.245 169.969 186.249 166.552 188.97 164.983C189.793 164.506 190.681 164.253 191.57 164.198V109.266C190.945 109.184 190.347 108.899 189.891 108.438L141.306 136.485C142.178 138.691 141.328 141.258 139.216 142.476C138.673 142.788 138.091 142.986 137.505 143.074V198.505C138.371 198.686 139.123 199.191 139.627 199.887ZM189.293 105.322L138.421 75.9526C138.267 76.1391 138.075 76.3037 137.85 76.4353C136.939 76.962 135.799 76.737 135.151 75.9526L84.41 105.251C84.6898 105.904 84.7172 106.617 84.5307 107.27L132.984 135.24C133.352 134.779 133.813 134.374 134.356 134.061C136.468 132.843 139.117 133.386 140.587 135.24L189.173 107.193C188.997 106.567 189.047 105.904 189.293 105.322Z" fill="url(#paint0_linear_4_1094)"/>
<defs>
<linearGradient id="paint0_linear_4_1094" x1="720.088" y1="239.239" x2="720.088" y2="-4.57764e-05" gradientUnits="userSpaceOnUse">
<stop stop-color="#FB7A02"/>
<stop offset="1" stop-color="#FFBC50" stop-opacity="0.3"/>
</linearGradient>
</defs>
</svg>
