<svg width="25" height="25" viewBox="0 0 25 25" fill="none" xmlns="http://www.w3.org/2000/svg">
<mask id="mask0_4_1088" style="mask-type:luminance" maskUnits="userSpaceOnUse" x="0" y="0" width="25" height="25">
<path d="M0.027832 0H24.7652V24.7327H0.027832V0Z" fill="white"/>
</mask>
<g mask="url(#mask0_4_1088)">
<path d="M18.3182 0.00927734H6.15226C2.77898 0.00927734 0.027832 2.76043 0.027832 6.12909V18.318C0.027832 21.6683 2.77898 24.4194 6.15226 24.4194H18.3412C21.7099 24.4194 24.461 21.6683 24.461 18.2996V6.12909C24.4426 2.76043 21.6914 0.00927734 18.3182 0.00927734ZM8.16608 19.7696H4.6776V9.69591H8.16608V19.7696ZM6.40571 8.14753C5.41493 8.14753 4.6223 7.35029 4.6223 6.36412C4.6223 5.37333 5.41493 4.58071 6.40571 4.58071C7.39189 4.58071 8.18451 5.37333 8.18451 6.36412C8.16608 7.35029 7.37345 8.14753 6.40571 8.14753ZM19.7928 19.7696H16.885V14.8895C16.885 13.7051 16.7329 12.1936 15.1246 12.1936C13.4748 12.1936 13.2029 13.4747 13.2029 14.8111V19.7696H10.2997V9.69591H13.0094V11.0508H13.0877C13.5163 10.2766 14.5025 9.67748 16.0509 9.67748C19.249 9.67748 19.8112 11.5162 19.8112 14.2489V19.7696H19.7928Z" fill="#0E629C"/>
</g>
</svg>
