<svg width="105" height="151" viewBox="0 0 105 151" fill="none" xmlns="http://www.w3.org/2000/svg">
<path fill-rule="evenodd" clip-rule="evenodd" d="M75.4554 18.6018H97.688C100.36 18.6018 102.537 20.7756 102.537 23.4512V143.064C102.537 145.739 100.36 147.913 97.688 147.913H6.96804C4.30276 147.913 2.12207 145.739 2.12207 143.064V23.4512C2.12207 20.7756 4.29583 18.6018 6.96804 18.6018H29.211V28.3007H11.8175V138.214H92.8386V28.3007H75.4554V18.6018Z" fill="#3498DB"/>
<path fill-rule="evenodd" clip-rule="evenodd" d="M32.9875 70.1768C38.903 68.325 45.4901 62.0183 45.4901 55.5385V44.6178C42.2952 44.0363 39.2941 42.676 36.6081 40.8518H29.3668C26.6773 42.676 23.6763 44.0363 20.4849 44.6178V55.5385C20.4849 62.0183 27.0685 68.325 32.9875 70.1768Z" fill="#3498DB"/>
<mask id="mask0_4_619" style="mask-type:luminance" maskUnits="userSpaceOnUse" x="0" y="0" width="105" height="151">
<path d="M0 0.211426H104.943V150.211H0V0.211426Z" fill="white"/>
</mask>
<g mask="url(#mask0_4_619)">
<path fill-rule="evenodd" clip-rule="evenodd" d="M77.5771 16.48H97.6878C101.533 16.48 104.659 19.6057 104.659 23.4513V143.064C104.659 146.909 101.533 150.035 97.6878 150.035H6.96785C3.13608 150.035 -0.00341797 146.909 -0.00341797 143.064V23.4513C-0.00341797 19.6057 3.12569 16.48 6.96785 16.48H27.089V12.6967C27.089 11.5233 28.0374 10.5714 29.2108 10.5714H40.0347C41.0419 4.68702 46.1614 0.211426 52.3296 0.211426C58.4943 0.211426 63.6241 4.68702 64.6314 10.5714H75.4552C76.6286 10.5714 77.5771 11.5233 77.5771 12.6967V16.48ZM27.089 20.7237H6.96785C5.4656 20.7237 4.24373 21.9491 4.24373 23.4513V143.064C4.24373 144.566 5.47253 145.791 6.96785 145.791H97.6878C99.1901 145.791 100.412 144.566 100.412 143.064V23.4513C100.412 21.9491 99.1901 20.7237 97.6878 20.7237H77.5771V26.1754H92.8384C94.0118 26.1754 94.9602 27.1273 94.9602 28.3007V138.214C94.9602 139.388 94.0118 140.34 92.8384 140.34H11.8173C10.6473 140.34 9.69544 139.388 9.69544 138.214V28.3007C9.69544 27.1273 10.6473 26.1754 11.8173 26.1754H27.089V20.7237ZM73.3334 26.1754V14.8186H62.6896C61.5161 14.8186 60.5643 13.8667 60.5643 12.6967C60.5643 8.14497 56.8744 4.45857 52.3296 4.45857C47.7847 4.45857 44.1018 8.14497 44.1018 12.6967C44.1018 13.8667 43.1499 14.8186 41.9765 14.8186H31.3327V26.1754H73.3334ZM90.7166 30.4226H13.9426V136.092H90.7166C90.7166 120.99 90.7166 30.4226 90.7166 30.4226ZM52.3296 15.4208C50.8239 15.4208 49.602 14.199 49.602 12.6967C49.602 11.191 50.8239 9.9622 52.3296 9.9622C53.8318 9.9622 55.0606 11.191 55.0606 12.6967C55.0606 14.199 53.8318 15.4208 52.3296 15.4208ZM55.9675 44.6836C54.7976 44.6836 53.8457 43.7317 53.8457 42.5583C53.8457 41.3883 54.7976 40.4364 55.9675 40.4364H85.386C86.5594 40.4364 87.5078 41.3883 87.5078 42.5583C87.5078 43.7317 86.5594 44.6836 85.386 44.6836H55.9675ZM55.9675 56.8123C54.7976 56.8123 53.8457 55.8639 53.8457 54.6905C53.8457 53.5205 54.7976 52.5686 55.9675 52.5686H85.386C86.5594 52.5686 87.5078 53.5205 87.5078 54.6905C87.5078 55.8639 86.5594 56.8123 85.386 56.8123H55.9675ZM64.6279 119.699C63.8907 118.789 64.0326 117.449 64.9429 116.712C65.8533 115.975 67.1928 116.117 67.9301 117.027L70.7131 120.468L77.9094 114.071C78.7851 113.292 80.1281 113.372 80.9069 114.247C81.6858 115.123 81.6061 116.466 80.7304 117.245L71.8727 125.116C71.44 125.504 70.8654 125.694 70.2873 125.646C69.7093 125.597 69.1762 125.317 68.8128 124.867L64.6279 119.699ZM55.9675 68.9445C54.7976 68.9445 53.8457 67.9927 53.8457 66.8227C53.8457 65.6493 54.7976 64.6974 55.9675 64.6974H85.386C86.5594 64.6974 87.5078 65.6493 87.5078 66.8227C87.5078 67.9927 86.5594 68.9445 85.386 68.9445H55.9675ZM32.3503 72.2017C28.4113 70.9695 24.1987 67.9684 21.4608 64.2024C19.5466 61.5648 18.3593 58.5603 18.3593 55.5385V44.6178C18.3593 43.5932 19.0932 42.714 20.1039 42.5306C23.0045 42.001 25.7321 40.7514 28.1759 39.0969C28.5289 38.858 28.9443 38.7299 29.3666 38.7299H36.6079C37.0302 38.7299 37.4455 38.858 37.7986 39.0969C40.2423 40.7514 42.9665 42.001 45.8706 42.5306C46.8779 42.714 47.6117 43.5932 47.6117 44.6178V55.5385C47.6117 58.5603 46.4244 61.5648 44.5103 64.2059C41.7757 67.9684 37.5598 70.9695 33.6207 72.2017C33.2088 72.3298 32.7657 72.3298 32.3503 72.2017ZM32.9872 67.9338C35.9571 66.8331 39.0239 64.5278 41.0731 61.7102C42.4438 59.8237 43.3645 57.6984 43.3645 55.5385V46.3173C40.7443 45.6181 38.2555 44.4551 35.9675 42.9771H30.007C27.719 44.4551 25.2302 45.6181 22.6065 46.3173V55.5385C22.6065 57.6984 23.5272 59.8203 24.8979 61.7068C26.9471 64.5278 30.0174 66.8331 32.9872 67.9338ZM20.4846 109.585C19.3112 109.585 18.3593 108.633 18.3593 107.463C18.3593 106.29 19.3112 105.338 20.4846 105.338H85.386C86.5594 105.338 87.5078 106.29 87.5078 107.463C87.5078 108.633 86.5594 109.585 85.386 109.585H20.4846ZM20.4846 97.4527C19.3112 97.4527 18.3593 96.5008 18.3593 95.3308C18.3593 94.1609 19.3112 93.209 20.4846 93.209H85.386C86.5594 93.209 87.5078 94.1609 87.5078 95.3308C87.5078 96.5008 86.5594 97.4527 85.386 97.4527H20.4846ZM20.4846 85.3239C19.3112 85.3239 18.3593 84.372 18.3593 83.1986C18.3593 82.0287 19.3112 81.0768 20.4846 81.0768H85.386C86.5594 81.0768 87.5078 82.0287 87.5078 83.1986C87.5078 84.372 86.5594 85.3239 85.386 85.3239H20.4846ZM20.4846 121.717C19.3112 121.717 18.3593 120.765 18.3593 119.595C18.3593 118.422 19.3112 117.47 20.4846 117.47H52.3296C53.4995 117.47 54.4514 118.422 54.4514 119.595C54.4514 120.765 53.4995 121.717 52.3296 121.717H20.4846Z" fill="#0E629C"/>
</g>
</svg>
