<svg width="168" height="151" viewBox="0 0 168 151" fill="none" xmlns="http://www.w3.org/2000/svg">
<path fill-rule="evenodd" clip-rule="evenodd" d="M125.213 48.3559C113.944 44.6778 101.558 47.6013 93.1669 55.9924C80.8944 68.2604 80.8944 88.2192 93.1669 100.487C99.4794 106.795 108.264 110.171 117.174 109.633L118.855 109.533C116.447 112.367 114.802 114.183 111.684 116.483L74.6768 143.73V7.95044L75.829 8.83609C90.1124 19.8118 107.428 26.2147 125.457 26.7931L126.153 26.8157V48.6632L125.213 48.3559ZM162.758 120.288L157.462 125.593L141.914 110.04L147.21 104.744L162.758 120.288Z" fill="#3498DB"/>
<mask id="mask0_4_641" style="mask-type:luminance" maskUnits="userSpaceOnUse" x="0" y="0" width="168" height="151">
<path d="M0.639404 0.711426H168V150.711H0.639404V0.711426Z" fill="white"/>
</mask>
<g mask="url(#mask0_4_641)">
<path fill-rule="evenodd" clip-rule="evenodd" d="M114.287 93.8354C112.801 93.8354 111.594 95.0374 111.594 96.533C111.594 98.0196 112.801 99.2261 114.287 99.2261C115.778 99.2261 116.98 98.0151 116.98 96.5285C116.98 95.0419 115.778 93.8354 114.287 93.8354ZM161.742 120.292L147.21 105.76L142.926 110.039L157.463 124.576L161.742 120.292ZM134.359 59.2951C144.806 69.7421 144.806 86.7367 134.359 97.1882C123.912 107.635 106.908 107.635 96.4658 97.1882C86.0188 86.7367 86.0188 69.7421 96.4658 59.2951C106.913 48.8435 123.916 48.8481 134.359 59.2951ZM117.22 110.351C115.48 112.393 113.492 114.251 111.255 115.904L75.3955 142.307V9.40505C89.9455 20.5886 107.428 26.9328 125.435 27.5111V47.6732C114.274 44.0312 101.509 46.6339 92.6566 55.4859C80.1039 68.0341 80.1039 88.4492 92.6566 100.993C99.3352 107.671 108.377 110.88 117.22 110.351ZM70.0093 9.40505C55.4639 20.5886 37.9678 26.9328 19.9566 27.5111V44.5057H51.2254L46.1239 41.2026C44.8768 40.3937 44.5198 38.7218 45.3287 37.4792C46.142 36.2276 47.8094 35.8751 49.0565 36.6794L62.1018 45.1699C63.3037 46.1866 63.376 48.098 62.0656 49.2638L49.0565 57.7136C47.8229 58.5179 46.142 58.1745 45.3287 56.9228C44.5198 55.6712 44.8768 54.0038 46.1239 53.195L51.2254 49.8919H19.9566V74.2969H51.2254L46.1239 70.9938C44.8768 70.185 44.5198 68.5131 45.3287 67.2705C46.142 66.0188 47.8094 65.6573 49.0565 66.4707L62.0656 74.925C63.2902 75.9372 63.4031 77.7898 62.0656 79.055L49.0565 87.5048C47.8139 88.3137 46.142 87.9657 45.3287 86.7095C44.5198 85.4624 44.8768 83.795 46.1239 82.9862L51.2254 79.6831H19.9566V87.0484C19.9566 93.2661 21.3393 99.0318 23.9691 104.088H51.2254L46.1239 100.785C44.8768 99.9762 44.5198 98.3088 45.3287 97.0572C46.142 95.8146 47.8094 95.4531 49.0565 96.2664L62.0656 104.716C63.629 106.108 63.0823 108.313 61.7945 109.041L49.0565 117.301C47.8139 118.105 46.142 117.757 45.3287 116.505C44.5198 115.258 44.8768 113.586 46.1239 112.777L51.2254 109.474H27.453C29.3463 111.865 31.583 114.02 34.1406 115.904L70.0093 142.316V9.40505ZM166.138 123.514L160.684 128.972C158.909 130.748 156.017 130.748 154.241 128.972L138.53 113.256C136.754 111.485 136.754 108.598 138.53 106.817L139.352 105.99L136.18 102.818C132.773 105.692 128.914 107.757 124.852 108.995C122.186 113.338 118.688 117.12 114.45 120.238L74.2975 149.808C73.3441 150.508 72.0518 150.508 71.0983 149.808L30.9414 120.238C26.8385 117.215 23.4585 113.586 20.8468 109.474H3.32811C1.84148 109.474 0.63501 108.268 0.63501 106.781C0.63501 105.295 1.84148 104.088 3.32811 104.088H17.9955C15.7453 98.9143 14.5704 93.1666 14.5704 87.0484V79.6876H3.32811C1.84148 79.6876 0.63501 78.4766 0.63501 76.99C0.63501 75.4989 1.84148 74.2969 3.32811 74.2969H14.5704V49.8919H3.32811C1.84148 49.8919 0.63501 48.6854 0.63501 47.1988C0.63501 45.7121 1.84148 44.5057 3.32811 44.5057H14.5704V24.8632C14.5704 23.3721 15.7769 22.1701 17.2635 22.1701C36.802 22.1701 55.857 14.8952 70.9266 1.69177C71.9433 0.797081 73.4616 0.797081 74.4782 1.69177C89.5478 14.8952 108.598 22.1656 128.128 22.1656C129.614 22.1656 130.825 23.3721 130.825 24.8632V49.9958C133.46 51.4282 135.936 53.2582 138.168 55.4859C150.075 67.3879 150.671 86.3752 139.985 99.0047L143.161 102.186L143.984 101.359C145.764 99.5831 148.656 99.5831 150.427 101.359L166.138 117.07C167.919 118.846 167.919 121.738 166.138 123.514ZM125.909 72.6747C125.909 66.2628 120.699 61.0528 114.287 61.0528C110.966 61.0528 107.799 62.4807 105.593 64.9614C104.604 66.0775 104.708 67.7811 105.819 68.7661C106.935 69.7557 108.634 69.6518 109.624 68.5447C113.411 64.2746 120.518 66.9496 120.518 72.6747C120.518 75.3317 118.838 77.7039 116.321 78.567C113.447 79.5611 111.594 82.1683 111.594 85.2048V88.7971C111.594 90.2838 112.801 91.4902 114.287 91.4902C115.778 91.4902 116.98 90.2838 116.98 88.7971V85.2048C116.98 84.4728 117.392 83.899 118.083 83.6595C122.764 82.0418 125.909 77.6316 125.909 72.6747Z" fill="#0E629C"/>
</g>
</svg>
