<svg width="150" height="151" viewBox="0 0 150 151" fill="none" xmlns="http://www.w3.org/2000/svg">
<path fill-rule="evenodd" clip-rule="evenodd" d="M137.886 12.4153C137.886 11.9131 137.477 11.5041 136.975 11.5041H101.036C100.534 11.5041 100.125 11.9131 100.125 12.4153C100.125 12.9175 100.534 13.3265 101.036 13.3265H136.975C137.477 13.3265 137.886 12.9175 137.886 12.4153ZM137.886 22.3173C137.886 21.8151 137.477 21.4061 136.975 21.4061H101.036C100.534 21.4061 100.125 21.8151 100.125 22.3173C100.125 22.8195 100.534 23.2285 101.036 23.2285H136.975C137.477 23.2285 137.886 22.8195 137.886 22.3173ZM136.975 33.1265C137.477 33.1265 137.886 32.7174 137.886 32.2152C137.886 31.7131 137.477 31.304 136.975 31.304H101.036C100.534 31.304 100.125 31.7131 100.125 32.2152C100.125 32.7174 100.534 33.1265 101.036 33.1265H136.975ZM21.0916 79.3965V100.545H14.0569V79.3965H21.0916ZM17.5762 66.0683C15.8064 66.0683 14.3728 64.6306 14.3728 62.8648C14.3728 61.0991 15.8105 59.6654 17.5762 59.6654C19.342 59.6654 20.7757 61.0991 20.7757 62.8648C20.7757 64.6306 19.342 66.0683 17.5762 66.0683ZM37.0603 84.5844V100.545H30.0256V84.5844H37.0603ZM36.7444 68.0528C36.7444 69.8185 35.3107 71.2522 33.545 71.2522C31.7792 71.2522 30.3415 69.8185 30.3415 68.0528C30.3415 66.287 31.7792 64.8533 33.545 64.8533C35.3107 64.8533 36.7444 66.287 36.7444 68.0528ZM53.029 69.3001V100.545H45.9944V69.3001H53.029ZM52.7131 52.7685C52.7131 54.5342 51.2754 55.9719 49.5097 55.9719C47.7439 55.9719 46.3102 54.5342 46.3102 52.7685C46.3102 51.0027 47.7439 49.569 49.5097 49.569C51.2754 49.569 52.7131 51.0027 52.7131 52.7685ZM65.4824 42.0929C63.7167 42.0929 62.279 40.6552 62.279 38.8935C62.279 37.1278 63.7167 35.6901 65.4824 35.6901C67.2482 35.6901 68.6859 37.1237 68.6859 38.8935C68.6859 40.6593 67.2482 42.0929 65.4824 42.0929ZM69.0018 100.545H61.9631V55.4211H69.0018V100.545ZM110.89 53.5784C112.413 49.7472 112.567 45.5961 111.663 41.5907C111.57 41.1777 111.198 40.882 110.772 40.882H93.5725C92.2158 40.882 91.1142 39.7764 91.1142 38.4197V6.21087C91.1142 4.85416 92.2158 3.74854 93.5725 3.74854H144.439C145.8 3.74854 146.906 4.85416 146.906 6.21087V38.4197C146.906 39.7804 145.8 40.882 144.439 40.882H124.449C123.955 40.882 123.55 41.287 123.534 41.777C123.481 43.5873 122.768 45.7864 121.958 47.378C119.958 51.2862 116.527 53.8295 112.396 55.1822L109.934 55.9881L110.89 53.5784ZM121.411 135.872C121.411 140.428 116.143 143.174 112.486 144.527C106.16 146.868 98.4729 147.617 91.7703 147.617C85.0677 147.617 77.381 146.868 71.0592 144.527C67.4021 143.174 62.1291 140.428 62.1291 135.872C62.1291 119.527 75.429 106.235 91.7744 106.235C108.12 106.235 121.411 119.531 121.411 135.872Z" fill="#3498DB"/>
<mask id="mask0_4_705" style="mask-type:luminance" maskUnits="userSpaceOnUse" x="0" y="0" width="150" height="151">
<path d="M0 0.711426H150V150.711H0V0.711426Z" fill="white"/>
</mask>
<g mask="url(#mask0_4_705)">
<path fill-rule="evenodd" clip-rule="evenodd" d="M139.102 32.2156C139.102 33.39 138.15 34.3418 136.976 34.3418H101.037C99.8664 34.3418 98.9106 33.39 98.9106 32.2156C98.9106 31.0411 99.8664 30.0934 101.037 30.0934H136.976C138.15 30.0934 139.102 31.0411 139.102 32.2156ZM139.102 22.3176C139.102 23.4921 138.15 24.4398 136.976 24.4398H101.037C99.8664 24.4398 98.9106 23.4921 98.9106 22.3176C98.9106 21.1431 99.8664 20.1914 101.037 20.1914H136.976C138.15 20.1914 139.102 21.1431 139.102 22.3176ZM139.102 12.4156C139.102 13.5901 138.15 14.5418 136.976 14.5418H101.037C99.8664 14.5418 98.9106 13.5901 98.9106 12.4156C98.9106 11.2412 99.8664 10.2894 101.037 10.2894H136.976C138.15 10.2894 139.102 11.2412 139.102 12.4156ZM145.691 38.42V6.21118C145.691 5.5227 145.128 4.96382 144.439 4.96382H93.5728C92.8843 4.96382 92.3255 5.5227 92.3255 6.21118V38.42C92.3255 39.1085 92.8843 39.6674 93.5728 39.6674H110.773C111.765 39.6674 112.628 40.3558 112.846 41.3238C114.073 46.7425 113.195 51.0678 112.02 54.0283C121.914 50.7924 122.311 42.154 122.323 41.7369C122.359 40.5907 123.299 39.6674 124.445 39.6674H144.439C145.128 39.6674 145.691 39.1085 145.691 38.42ZM144.439 0.711426H93.5728C90.5395 0.711426 88.0771 3.17781 88.0771 6.21118V38.42C88.0771 41.4534 90.5395 43.9198 93.5728 43.9198H109.007C110.032 51.2217 106.407 55.5106 106.253 55.6928C105.666 56.3529 105.548 57.3087 105.961 58.0944C106.33 58.7991 107.059 59.2284 107.837 59.2284C107.926 59.2284 108.015 59.2243 108.104 59.2122C117.394 58.0539 121.93 53.433 124.101 49.7638C125.405 47.5525 126.025 45.4182 126.312 43.9198H144.439C147.473 43.9198 149.939 41.4534 149.939 38.42V6.21118C149.939 3.17781 147.473 0.711426 144.439 0.711426ZM91.7706 146.402C75.567 146.402 63.3444 141.879 63.3444 135.873C63.3444 120.2 76.0975 107.446 91.7747 107.446C107.448 107.446 120.197 120.2 120.197 135.873C120.197 141.879 107.978 146.402 91.7706 146.402ZM5.15957 123.456H61.5503C64.7943 115.591 71.0149 109.265 78.8069 105.887V92.8384C76.7496 90.1169 75.5305 86.7352 75.5305 83.066C75.5305 79.4009 76.7496 76.0152 78.8069 73.2936V28.8217C78.8069 28.3196 78.3979 27.9105 77.8957 27.9105H20.4763V42.0123C20.4763 43.1867 19.5245 44.1384 18.3501 44.1384H4.25239V122.544C4.25239 123.047 4.65738 123.456 5.15957 123.456ZM16.2279 30.9155V39.8861H7.25336L16.2279 30.9155ZM91.7747 71.0743C98.3881 71.0743 103.766 76.4566 103.766 83.066C103.766 89.6795 98.3881 95.0618 91.7747 95.0618C85.1612 95.0618 79.7789 89.6795 79.7789 83.066C79.7789 76.4526 85.1612 71.0743 91.7747 71.0743ZM91.7747 103.198C88.7534 103.198 85.8294 103.611 83.0593 104.385V96.7668C85.5743 98.3746 88.5672 99.3102 91.7747 99.3102C100.729 99.3102 108.019 92.0244 108.019 83.066C108.019 74.1117 100.729 66.826 91.7747 66.826C88.5672 66.826 85.5743 67.7615 83.0593 69.3733V28.8217C83.0593 25.9787 80.7428 23.6622 77.8957 23.6622H18.3501C17.7871 23.6622 17.2485 23.8849 16.8476 24.2859L0.623684 40.5097C0.222745 40.9107 0 41.4493 0 42.0123V122.544C0 125.391 2.31654 127.704 5.15957 127.704H60.1328C59.4565 130.316 59.0961 133.054 59.0961 135.873C59.0961 139.275 60.9914 144.029 70.0348 147.358C75.8059 149.484 83.525 150.651 91.7706 150.651C108.035 150.651 124.449 146.082 124.449 135.873C124.449 117.859 109.793 103.198 91.7747 103.198ZM17.5765 60.8767C18.67 60.8767 19.561 61.7676 19.561 62.8652C19.561 63.9627 18.67 64.8537 17.5765 64.8537C16.479 64.8537 15.588 63.9627 15.588 62.8652C15.588 61.7676 16.479 60.8767 17.5765 60.8767ZM33.5453 66.0686C34.6388 66.0686 35.5297 66.9596 35.5297 68.0531C35.5297 69.1506 34.6388 70.0416 33.5453 70.0416C32.4478 70.0416 31.5527 69.1506 31.5527 68.0531C31.5527 66.9596 32.4478 66.0686 33.5453 66.0686ZM49.51 50.7843C50.6075 50.7843 51.4985 51.6753 51.4985 52.7688C51.4985 53.8663 50.6075 54.7573 49.51 54.7573C48.4165 54.7573 47.5255 53.8663 47.5255 52.7688C47.5255 51.6753 48.4165 50.7843 49.51 50.7843ZM65.4827 36.9053C66.5803 36.9053 67.4712 37.7963 67.4712 38.8938C67.4712 39.9873 66.5803 40.8783 65.4827 40.8783C64.3893 40.8783 63.4943 39.9873 63.4943 38.8938C63.4943 37.7963 64.3893 36.9053 65.4827 36.9053ZM17.5765 69.102C14.1341 69.102 11.3397 66.3035 11.3397 62.8652C11.3397 59.4268 14.1341 56.6283 17.5765 56.6283C20.942 56.6283 23.6878 59.3134 23.8012 62.6546L28.6328 64.2219C29.7748 62.7639 31.5487 61.8162 33.5453 61.8162C34.5335 61.8162 35.469 62.0552 36.3073 62.4683L43.8118 55.2878C43.4675 54.5183 43.2772 53.6638 43.2772 52.7688C43.2772 49.3304 46.0716 46.536 49.51 46.536C50.6156 46.536 51.6443 46.8235 52.5393 47.3257L59.6671 41.1294C59.3998 40.4328 59.2459 39.6836 59.2459 38.8938C59.2459 35.4514 62.0444 32.657 65.4827 32.657C68.9211 32.657 71.7196 35.4514 71.7196 38.8938C71.7196 42.3322 68.9211 45.1307 65.4827 45.1307C64.3812 45.1307 63.3525 44.8391 62.4534 44.3409L55.3256 50.5332C55.597 51.2298 55.7468 51.9831 55.7468 52.7688C55.7468 56.2112 52.9524 59.0056 49.51 59.0056C48.5177 59.0056 47.5822 58.7707 46.752 58.3536L39.2475 65.5381C39.5877 66.3076 39.7821 67.1581 39.7821 68.0531C39.7821 71.4914 36.9836 74.2899 33.5453 74.2899C30.1758 74.2899 27.4299 71.6048 27.3165 68.2637L22.485 66.6964C21.3429 68.1584 19.5691 69.102 17.5765 69.102ZM67.7871 99.3345H63.1784V56.6364H67.7871V99.3345ZM72.0355 101.457C72.0355 102.631 71.0838 103.583 69.9093 103.583H61.0522C59.8777 103.583 58.93 102.631 58.93 101.457V54.5143C58.93 53.3398 59.8777 52.3881 61.0522 52.3881H69.9093C71.0838 52.3881 72.0355 53.3398 72.0355 54.5143V101.457ZM51.8144 99.3345H47.2096V70.5154H51.8144V99.3345ZM53.9405 66.2671C55.115 66.2671 56.0627 67.2188 56.0627 68.3892V101.457C56.0627 102.631 55.115 103.583 53.9405 103.583H45.0875C43.913 103.583 42.9613 102.631 42.9613 101.457V68.3892C42.9613 67.2188 43.913 66.2671 45.0875 66.2671H53.9405ZM35.8456 99.3345H31.2409V85.7997H35.8456V99.3345ZM37.9718 81.5473C39.1422 81.5473 40.098 82.4991 40.098 83.6735V101.457C40.098 102.631 39.1422 103.583 37.9718 103.583H29.1147C27.9443 103.583 26.9885 102.631 26.9885 101.457V83.6735C26.9885 82.4991 27.9443 81.5473 29.1147 81.5473H37.9718ZM19.8769 99.3345H15.2722V80.6118H19.8769V99.3345ZM22.0031 76.3594C23.1735 76.3594 24.1252 77.3111 24.1252 78.4856V101.457C24.1252 102.631 23.1735 103.583 22.0031 103.583H13.146C11.9715 103.583 11.0238 102.631 11.0238 101.457V78.4856C11.0238 77.3111 11.9715 76.3594 13.146 76.3594H22.0031Z" fill="#0E629C"/>
</g>
</svg>
