<svg width="150" height="151" viewBox="0 0 150 151" fill="none" xmlns="http://www.w3.org/2000/svg">
<path d="M80.0045 75.7116C80.0045 72.9458 77.766 70.7119 75.0002 70.7119C72.239 70.7119 70.0005 72.9458 70.0005 75.7116C70.0005 78.4728 72.239 80.7113 75.0002 80.7113C77.766 80.7113 80.0045 78.4728 80.0045 75.7116Z" fill="#3498DB"/>
<path d="M75.0001 25.71C47.3838 25.71 25.0032 48.0953 25.0032 75.7115H35.0026C35.0026 53.6222 52.9108 35.7093 75.0001 35.7093V25.71Z" fill="#3498DB"/>
<path d="M125.001 75.7115C125.001 48.0953 102.62 25.71 74.9995 25.71V35.7093C97.0934 35.7093 115.002 53.6222 115.002 75.7115H125.001Z" fill="#3498DB"/>
<path d="M115.003 75.7114C115.003 82.9959 113.051 89.8317 109.651 95.7102L118.314 100.71C122.569 93.356 125.002 84.8228 125.002 75.7114H115.003Z" fill="#3498DB"/>
<path d="M55.4133 110.751C55.1775 112.166 53.9472 113.212 52.5042 113.212C51.0565 113.212 49.8263 112.166 49.5904 110.751L47.5045 98.2126C47.5045 95.4468 49.7384 93.2129 52.5042 93.2129C55.2653 93.2129 57.5039 95.4468 57.5039 98.2126L55.4133 110.751ZM52.5042 130.713C49.7384 130.713 47.5045 128.474 47.5045 125.713C47.5045 122.947 49.7384 120.714 52.5042 120.714C55.2653 120.714 57.5039 122.947 57.5039 125.713C57.5039 128.474 55.2653 130.713 52.5042 130.713ZM87.8165 130.593L56.7592 80.1333C54.8075 76.9605 50.1963 76.9605 48.2445 80.1333L17.1918 130.593C15.1383 133.923 17.5433 138.21 21.4469 138.21H83.5568C87.465 138.21 89.8654 133.923 87.8165 130.593Z" fill="#3498DB"/>
<mask id="mask0_4_662" style="mask-type:luminance" maskUnits="userSpaceOnUse" x="0" y="0" width="151" height="151">
<path d="M0 0.711426H150.005V150.711H0V0.711426Z" fill="white"/>
</mask>
<g mask="url(#mask0_4_662)">
<path d="M75 145.712C66.0783 145.712 57.2768 143.982 49.0765 140.712H83.5564C86.3129 140.712 88.7642 139.278 90.1008 136.864C91.4467 134.464 91.3912 131.628 89.9436 129.274L58.8909 78.8148C57.5126 76.5902 55.1307 75.2535 52.5037 75.2535C49.8767 75.2535 47.4901 76.5902 46.1165 78.8148L20.785 119.987C10.5868 107.509 4.99969 91.913 4.99969 75.7114C4.99969 37.106 36.3992 5.71112 75 5.71112C113.605 5.71112 145.005 37.106 145.005 75.7114C145.005 114.317 113.605 145.712 75 145.712ZM21.4464 135.712C20.1283 135.712 19.4854 134.815 19.268 134.431C19.0553 134.043 18.6251 133.025 19.3189 131.901L50.3715 81.4419C51.0376 80.3689 52.0828 80.2532 52.5037 80.2532C52.92 80.2532 53.9652 80.3689 54.6312 81.4419L85.6839 131.901C86.3776 133.025 85.9475 134.043 85.7348 134.431C85.522 134.815 84.8745 135.712 83.5564 135.712H21.4464ZM75 0.711426C33.6427 0.711426 0 34.3541 0 75.7114C0 93.652 6.39646 110.876 18.0285 124.46L15.0592 129.274C13.6162 131.628 13.5561 134.464 14.9066 136.864C16.2525 139.278 18.6945 140.712 21.4464 140.712H37.6017C48.9378 147.243 61.8463 150.711 75 150.711C116.362 150.711 150.005 117.069 150.005 75.7114C150.005 34.3541 116.362 0.711426 75 0.711426Z" fill="#0E629C"/>
</g>
<path d="M74.9997 78.2093C73.626 78.2093 72.5021 77.0901 72.5021 75.7118C72.5021 74.3335 73.626 73.2097 74.9997 73.2097C76.3779 73.2097 77.5018 74.3335 77.5018 75.7118C77.5018 77.0901 76.3779 78.2093 74.9997 78.2093ZM82.4738 75.3881C82.298 71.4059 79.0235 68.21 74.9997 68.21C70.8602 68.21 67.5024 71.5724 67.5024 75.7118C67.5024 79.8512 70.8602 83.2137 74.9997 83.2137C77.4648 83.2137 79.6294 82.0111 80.9984 80.175L106.769 88.1024L108.235 83.32L82.4738 75.3881Z" fill="#0E629C"/>
<path d="M77.5021 10.7109H72.5024V18.2128H77.5021V10.7109Z" fill="#0E629C"/>
<path d="M62.5309 19.5219L60.5883 12.2837L55.7644 13.5741L57.7069 20.8169L62.5309 19.5219Z" fill="#0E629C"/>
<path d="M48.4196 24.6645L44.6686 18.1709L40.335 20.6731L44.0859 27.1666L48.4196 24.6645Z" fill="#0E629C"/>
<path d="M36.1173 33.2903L30.8123 27.9761L27.2695 31.5235L32.5791 36.8238L36.1173 33.2903Z" fill="#0E629C"/>
<path d="M26.4555 44.7932L19.9619 41.0422L17.4644 45.3805L23.9579 49.1315L26.4555 44.7932Z" fill="#0E629C"/>
<path d="M11.5627 61.2954L18.8102 63.2425L20.1099 58.4186L12.8624 56.4714L11.5627 61.2954Z" fill="#0E629C"/>
<path d="M10.0039 78.2092H17.5011V73.2095H10.0039V78.2092Z" fill="#0E629C"/>
<path d="M94.2403 13.5741L89.4164 12.2837L87.4739 19.5219L92.2978 20.8169L94.2403 13.5741Z" fill="#0E629C"/>
<path d="M109.67 20.6731L105.336 18.1709L101.585 24.6645L105.919 27.1666L109.67 20.6731Z" fill="#0E629C"/>
<path d="M122.735 31.5235L119.192 27.9761L113.887 33.2903L117.426 36.8238L122.735 31.5235Z" fill="#0E629C"/>
<path d="M126.047 49.1315L132.54 45.3805L130.043 41.0422L123.549 44.7932L126.047 49.1315Z" fill="#0E629C"/>
<path d="M131.195 63.2425L138.428 61.2954L137.142 56.4714L129.895 58.4186L131.195 63.2425Z" fill="#0E629C"/>
<path d="M132.503 78.2092H140V73.2095H132.503V78.2092Z" fill="#0E629C"/>
<path d="M129.895 93.0048L137.142 94.952L138.428 90.1234L131.195 88.1809L129.895 93.0048Z" fill="#0E629C"/>
<path d="M117.338 97.2645L113 94.7624C115.951 88.8746 117.505 82.3441 117.505 75.7117C117.505 52.2719 98.4401 33.212 75.0003 33.212C52.4069 33.212 33.8696 50.9353 32.5792 73.2096H27.5703C28.8699 48.1834 49.6503 28.2123 75.0003 28.2123C101.192 28.2123 122.504 49.52 122.504 75.7117C122.504 83.2321 120.724 90.6229 117.338 97.2645ZM75.0003 23.2126C46.0567 23.2126 22.5012 46.7681 22.5012 75.7117C22.5012 77.09 23.6251 78.2093 25.0034 78.2093H35.0028C36.381 78.2093 37.5003 77.09 37.5003 75.7117C37.5003 55.0377 54.3309 38.2117 75.0003 38.2117C95.6743 38.2117 112.505 55.0377 112.505 75.7117C112.505 82.3024 110.766 88.7868 107.482 94.4617C107.149 95.0399 107.061 95.7197 107.237 96.3672C107.403 97.0009 107.824 97.5466 108.402 97.8796L117.065 102.879C117.454 103.106 117.884 103.212 118.314 103.212C119.174 103.212 120.011 102.773 120.469 101.973C125.071 94.0223 127.504 84.9387 127.504 75.7117C127.504 46.7681 103.949 23.2126 75.0003 23.2126Z" fill="#0E629C"/>
<path d="M123.549 106.63L130.043 110.381L132.54 106.043L126.047 102.292L123.549 106.63Z" fill="#0E629C"/>
<path d="M52.5033 128.211C51.125 128.211 50.0012 127.087 50.0012 125.713C50.0012 124.335 51.125 123.211 52.5033 123.211C53.877 123.211 55.0008 124.335 55.0008 125.713C55.0008 127.087 53.877 128.211 52.5033 128.211ZM52.5033 118.211C48.3593 118.211 45.0015 121.569 45.0015 125.713C45.0015 129.852 48.3593 133.21 52.5033 133.21C56.6427 133.21 60.0005 129.852 60.0005 125.713C60.0005 121.569 56.6427 118.211 52.5033 118.211Z" fill="#0E629C"/>
<path d="M52.9519 110.33C52.8733 110.769 52.1287 110.769 52.0547 110.33L50.0104 98.0365C50.0983 96.7369 51.1852 95.7101 52.5033 95.7101C53.8215 95.7101 54.9037 96.7369 54.9916 98.0365L52.9519 110.33ZM52.5033 90.7104C48.3593 90.7104 45.0015 94.0729 45.0015 98.2123C45.0015 98.3464 45.0107 98.4852 45.0431 98.6193L47.1197 111.162C47.5684 113.799 49.8254 115.714 52.5033 115.714C55.1766 115.714 57.4336 113.799 57.8823 111.162L59.9635 98.6193C59.9913 98.4852 60.0005 98.3464 60.0005 98.2123C60.0005 94.0729 56.6427 90.7104 52.5033 90.7104Z" fill="#0E629C"/>
</svg>
